<?xml version="1.0" encoding="utf-8" standalone="no"?>
<!DOCTYPE svg PUBLIC "-//W3C//DTD SVG 1.1//EN"
  "http://www.w3.org/Graphics/SVG/1.1/DTD/svg11.dtd">
<!-- Created with matplotlib (http://matplotlib.org/) -->
<svg height="624.24pt" version="1.1" viewBox="0 0 1382.4 624.24" width="1382.4pt" xmlns="http://www.w3.org/2000/svg" xmlns:xlink="http://www.w3.org/1999/xlink">
 <defs>
  <style type="text/css">
*{stroke-linecap:butt;stroke-linejoin:round;}
  </style>
 </defs>
 <g id="figure_1">
  <g id="patch_1">
   <path d="M 0 624.24 
L 1382.4 624.24 
L 1382.4 0 
L 0 0 
z
" style="fill:#ffffff;"/>
  </g>
  <g id="axes_1">
   <g id="patch_2">
    <path d="M 172.8 555.5736 
L 1244.16 555.5736 
L 1244.16 74.9088 
L 172.8 74.9088 
z
" style="fill:#ffffff;"/>
   </g>
   <g id="matplotlib.axis_1">
    <g id="xtick_1">
     <g id="line2d_1">
      <defs>
       <path d="M 0 0 
L 0 3.5 
" id="mb371925990" style="stroke:#000000;stroke-width:0.8;"/>
      </defs>
      <g>
       <use style="stroke:#000000;stroke-width:0.8;" x="221.498182" xlink:href="#mb371925990" y="555.5736"/>
      </g>
     </g>
     <g id="text_1">
      <!-- 0 -->
      <defs>
       <path d="M 31.78125 66.40625 
Q 24.171875 66.40625 20.328125 58.90625 
Q 16.5 51.421875 16.5 36.375 
Q 16.5 21.390625 20.328125 13.890625 
Q 24.171875 6.390625 31.78125 6.390625 
Q 39.453125 6.390625 43.28125 13.890625 
Q 47.125 21.390625 47.125 36.375 
Q 47.125 51.421875 43.28125 58.90625 
Q 39.453125 66.40625 31.78125 66.40625 
z
M 31.78125 74.21875 
Q 44.046875 74.21875 50.515625 64.515625 
Q 56.984375 54.828125 56.984375 36.375 
Q 56.984375 17.96875 50.515625 8.265625 
Q 44.046875 -1.421875 31.78125 -1.421875 
Q 19.53125 -1.421875 13.0625 8.265625 
Q 6.59375 17.96875 6.59375 36.375 
Q 6.59375 54.828125 13.0625 64.515625 
Q 19.53125 74.21875 31.78125 74.21875 
z
" id="DejaVuSans-30"/>
      </defs>
      <g transform="translate(218.316932 570.172037)scale(0.1 -0.1)">
       <use xlink:href="#DejaVuSans-30"/>
      </g>
     </g>
    </g>
    <g id="xtick_2">
     <g id="line2d_2">
      <g>
       <use style="stroke:#000000;stroke-width:0.8;" x="366.433247" xlink:href="#mb371925990" y="555.5736"/>
      </g>
     </g>
     <g id="text_2">
      <!-- 100 -->
      <defs>
       <path d="M 12.40625 8.296875 
L 28.515625 8.296875 
L 28.515625 63.921875 
L 10.984375 60.40625 
L 10.984375 69.390625 
L 28.421875 72.90625 
L 38.28125 72.90625 
L 38.28125 8.296875 
L 54.390625 8.296875 
L 54.390625 0 
L 12.40625 0 
z
" id="DejaVuSans-31"/>
      </defs>
      <g transform="translate(356.889497 570.172037)scale(0.1 -0.1)">
       <use xlink:href="#DejaVuSans-31"/>
       <use x="63.623047" xlink:href="#DejaVuSans-30"/>
       <use x="127.246094" xlink:href="#DejaVuSans-30"/>
      </g>
     </g>
    </g>
    <g id="xtick_3">
     <g id="line2d_3">
      <g>
       <use style="stroke:#000000;stroke-width:0.8;" x="511.368312" xlink:href="#mb371925990" y="555.5736"/>
      </g>
     </g>
     <g id="text_3">
      <!-- 200 -->
      <defs>
       <path d="M 19.1875 8.296875 
L 53.609375 8.296875 
L 53.609375 0 
L 7.328125 0 
L 7.328125 8.296875 
Q 12.9375 14.109375 22.625 23.890625 
Q 32.328125 33.6875 34.8125 36.53125 
Q 39.546875 41.84375 41.421875 45.53125 
Q 43.3125 49.21875 43.3125 52.78125 
Q 43.3125 58.59375 39.234375 62.25 
Q 35.15625 65.921875 28.609375 65.921875 
Q 23.96875 65.921875 18.8125 64.3125 
Q 13.671875 62.703125 7.8125 59.421875 
L 7.8125 69.390625 
Q 13.765625 71.78125 18.9375 73 
Q 24.125 74.21875 28.421875 74.21875 
Q 39.75 74.21875 46.484375 68.546875 
Q 53.21875 62.890625 53.21875 53.421875 
Q 53.21875 48.921875 51.53125 44.890625 
Q 49.859375 40.875 45.40625 35.40625 
Q 44.1875 33.984375 37.640625 27.21875 
Q 31.109375 20.453125 19.1875 8.296875 
z
" id="DejaVuSans-32"/>
      </defs>
      <g transform="translate(501.824562 570.172037)scale(0.1 -0.1)">
       <use xlink:href="#DejaVuSans-32"/>
       <use x="63.623047" xlink:href="#DejaVuSans-30"/>
       <use x="127.246094" xlink:href="#DejaVuSans-30"/>
      </g>
     </g>
    </g>
    <g id="xtick_4">
     <g id="line2d_4">
      <g>
       <use style="stroke:#000000;stroke-width:0.8;" x="656.303377" xlink:href="#mb371925990" y="555.5736"/>
      </g>
     </g>
     <g id="text_4">
      <!-- 300 -->
      <defs>
       <path d="M 40.578125 39.3125 
Q 47.65625 37.796875 51.625 33 
Q 55.609375 28.21875 55.609375 21.1875 
Q 55.609375 10.40625 48.1875 4.484375 
Q 40.765625 -1.421875 27.09375 -1.421875 
Q 22.515625 -1.421875 17.65625 -0.515625 
Q 12.796875 0.390625 7.625 2.203125 
L 7.625 11.71875 
Q 11.71875 9.328125 16.59375 8.109375 
Q 21.484375 6.890625 26.8125 6.890625 
Q 36.078125 6.890625 40.9375 10.546875 
Q 45.796875 14.203125 45.796875 21.1875 
Q 45.796875 27.640625 41.28125 31.265625 
Q 36.765625 34.90625 28.71875 34.90625 
L 20.21875 34.90625 
L 20.21875 43.015625 
L 29.109375 43.015625 
Q 36.375 43.015625 40.234375 45.921875 
Q 44.09375 48.828125 44.09375 54.296875 
Q 44.09375 59.90625 40.109375 62.90625 
Q 36.140625 65.921875 28.71875 65.921875 
Q 24.65625 65.921875 20.015625 65.03125 
Q 15.375 64.15625 9.8125 62.3125 
L 9.8125 71.09375 
Q 15.4375 72.65625 20.34375 73.4375 
Q 25.25 74.21875 29.59375 74.21875 
Q 40.828125 74.21875 47.359375 69.109375 
Q 53.90625 64.015625 53.90625 55.328125 
Q 53.90625 49.265625 50.4375 45.09375 
Q 46.96875 40.921875 40.578125 39.3125 
z
" id="DejaVuSans-33"/>
      </defs>
      <g transform="translate(646.759627 570.172037)scale(0.1 -0.1)">
       <use xlink:href="#DejaVuSans-33"/>
       <use x="63.623047" xlink:href="#DejaVuSans-30"/>
       <use x="127.246094" xlink:href="#DejaVuSans-30"/>
      </g>
     </g>
    </g>
    <g id="xtick_5">
     <g id="line2d_5">
      <g>
       <use style="stroke:#000000;stroke-width:0.8;" x="801.238442" xlink:href="#mb371925990" y="555.5736"/>
      </g>
     </g>
     <g id="text_5">
      <!-- 400 -->
      <defs>
       <path d="M 37.796875 64.3125 
L 12.890625 25.390625 
L 37.796875 25.390625 
z
M 35.203125 72.90625 
L 47.609375 72.90625 
L 47.609375 25.390625 
L 58.015625 25.390625 
L 58.015625 17.1875 
L 47.609375 17.1875 
L 47.609375 0 
L 37.796875 0 
L 37.796875 17.1875 
L 4.890625 17.1875 
L 4.890625 26.703125 
z
" id="DejaVuSans-34"/>
      </defs>
      <g transform="translate(791.694692 570.172037)scale(0.1 -0.1)">
       <use xlink:href="#DejaVuSans-34"/>
       <use x="63.623047" xlink:href="#DejaVuSans-30"/>
       <use x="127.246094" xlink:href="#DejaVuSans-30"/>
      </g>
     </g>
    </g>
    <g id="xtick_6">
     <g id="line2d_6">
      <g>
       <use style="stroke:#000000;stroke-width:0.8;" x="946.173506" xlink:href="#mb371925990" y="555.5736"/>
      </g>
     </g>
     <g id="text_6">
      <!-- 500 -->
      <defs>
       <path d="M 10.796875 72.90625 
L 49.515625 72.90625 
L 49.515625 64.59375 
L 19.828125 64.59375 
L 19.828125 46.734375 
Q 21.96875 47.46875 24.109375 47.828125 
Q 26.265625 48.1875 28.421875 48.1875 
Q 40.625 48.1875 47.75 41.5 
Q 54.890625 34.8125 54.890625 23.390625 
Q 54.890625 11.625 47.5625 5.09375 
Q 40.234375 -1.421875 26.90625 -1.421875 
Q 22.3125 -1.421875 17.546875 -0.640625 
Q 12.796875 0.140625 7.71875 1.703125 
L 7.71875 11.625 
Q 12.109375 9.234375 16.796875 8.0625 
Q 21.484375 6.890625 26.703125 6.890625 
Q 35.15625 6.890625 40.078125 11.328125 
Q 45.015625 15.765625 45.015625 23.390625 
Q 45.015625 31 40.078125 35.4375 
Q 35.15625 39.890625 26.703125 39.890625 
Q 22.75 39.890625 18.8125 39.015625 
Q 14.890625 38.140625 10.796875 36.28125 
z
" id="DejaVuSans-35"/>
      </defs>
      <g transform="translate(936.629756 570.172037)scale(0.1 -0.1)">
       <use xlink:href="#DejaVuSans-35"/>
       <use x="63.623047" xlink:href="#DejaVuSans-30"/>
       <use x="127.246094" xlink:href="#DejaVuSans-30"/>
      </g>
     </g>
    </g>
    <g id="xtick_7">
     <g id="line2d_7">
      <g>
       <use style="stroke:#000000;stroke-width:0.8;" x="1091.108571" xlink:href="#mb371925990" y="555.5736"/>
      </g>
     </g>
     <g id="text_7">
      <!-- 600 -->
      <defs>
       <path d="M 33.015625 40.375 
Q 26.375 40.375 22.484375 35.828125 
Q 18.609375 31.296875 18.609375 23.390625 
Q 18.609375 15.53125 22.484375 10.953125 
Q 26.375 6.390625 33.015625 6.390625 
Q 39.65625 6.390625 43.53125 10.953125 
Q 47.40625 15.53125 47.40625 23.390625 
Q 47.40625 31.296875 43.53125 35.828125 
Q 39.65625 40.375 33.015625 40.375 
z
M 52.59375 71.296875 
L 52.59375 62.3125 
Q 48.875 64.0625 45.09375 64.984375 
Q 41.3125 65.921875 37.59375 65.921875 
Q 27.828125 65.921875 22.671875 59.328125 
Q 17.53125 52.734375 16.796875 39.40625 
Q 19.671875 43.65625 24.015625 45.921875 
Q 28.375 48.1875 33.59375 48.1875 
Q 44.578125 48.1875 50.953125 41.515625 
Q 57.328125 34.859375 57.328125 23.390625 
Q 57.328125 12.15625 50.6875 5.359375 
Q 44.046875 -1.421875 33.015625 -1.421875 
Q 20.359375 -1.421875 13.671875 8.265625 
Q 6.984375 17.96875 6.984375 36.375 
Q 6.984375 53.65625 15.1875 63.9375 
Q 23.390625 74.21875 37.203125 74.21875 
Q 40.921875 74.21875 44.703125 73.484375 
Q 48.484375 72.75 52.59375 71.296875 
z
" id="DejaVuSans-36"/>
      </defs>
      <g transform="translate(1081.564821 570.172037)scale(0.1 -0.1)">
       <use xlink:href="#DejaVuSans-36"/>
       <use x="63.623047" xlink:href="#DejaVuSans-30"/>
       <use x="127.246094" xlink:href="#DejaVuSans-30"/>
      </g>
     </g>
    </g>
    <g id="xtick_8">
     <g id="line2d_8">
      <g>
       <use style="stroke:#000000;stroke-width:0.8;" x="1236.043636" xlink:href="#mb371925990" y="555.5736"/>
      </g>
     </g>
     <g id="text_8">
      <!-- 700 -->
      <defs>
       <path d="M 8.203125 72.90625 
L 55.078125 72.90625 
L 55.078125 68.703125 
L 28.609375 0 
L 18.3125 0 
L 43.21875 64.59375 
L 8.203125 64.59375 
z
" id="DejaVuSans-37"/>
      </defs>
      <g transform="translate(1226.499886 570.172037)scale(0.1 -0.1)">
       <use xlink:href="#DejaVuSans-37"/>
       <use x="63.623047" xlink:href="#DejaVuSans-30"/>
       <use x="127.246094" xlink:href="#DejaVuSans-30"/>
      </g>
     </g>
    </g>
   </g>
   <g id="matplotlib.axis_2">
    <g id="ytick_1">
     <g id="line2d_9">
      <defs>
       <path d="M 0 0 
L -3.5 0 
" id="m756b82b163" style="stroke:#000000;stroke-width:0.8;"/>
      </defs>
      <g>
       <use style="stroke:#000000;stroke-width:0.8;" x="172.8" xlink:href="#m756b82b163" y="533.7252"/>
      </g>
     </g>
     <g id="text_9">
      <!-- 0 -->
      <g transform="translate(159.4375 537.524419)scale(0.1 -0.1)">
       <use xlink:href="#DejaVuSans-30"/>
      </g>
     </g>
    </g>
    <g id="ytick_2">
     <g id="line2d_10">
      <g>
       <use style="stroke:#000000;stroke-width:0.8;" x="172.8" xlink:href="#m756b82b163" y="437.877865"/>
      </g>
     </g>
     <g id="text_10">
      <!-- 20 -->
      <g transform="translate(153.075 441.677084)scale(0.1 -0.1)">
       <use xlink:href="#DejaVuSans-32"/>
       <use x="63.623047" xlink:href="#DejaVuSans-30"/>
      </g>
     </g>
    </g>
    <g id="ytick_3">
     <g id="line2d_11">
      <g>
       <use style="stroke:#000000;stroke-width:0.8;" x="172.8" xlink:href="#m756b82b163" y="342.03053"/>
      </g>
     </g>
     <g id="text_11">
      <!-- 40 -->
      <g transform="translate(153.075 345.829749)scale(0.1 -0.1)">
       <use xlink:href="#DejaVuSans-34"/>
       <use x="63.623047" xlink:href="#DejaVuSans-30"/>
      </g>
     </g>
    </g>
    <g id="ytick_4">
     <g id="line2d_12">
      <g>
       <use style="stroke:#000000;stroke-width:0.8;" x="172.8" xlink:href="#m756b82b163" y="246.183195"/>
      </g>
     </g>
     <g id="text_12">
      <!-- 60 -->
      <g transform="translate(153.075 249.982414)scale(0.1 -0.1)">
       <use xlink:href="#DejaVuSans-36"/>
       <use x="63.623047" xlink:href="#DejaVuSans-30"/>
      </g>
     </g>
    </g>
    <g id="ytick_5">
     <g id="line2d_13">
      <g>
       <use style="stroke:#000000;stroke-width:0.8;" x="172.8" xlink:href="#m756b82b163" y="150.33586"/>
      </g>
     </g>
     <g id="text_13">
      <!-- 80 -->
      <defs>
       <path d="M 31.78125 34.625 
Q 24.75 34.625 20.71875 30.859375 
Q 16.703125 27.09375 16.703125 20.515625 
Q 16.703125 13.921875 20.71875 10.15625 
Q 24.75 6.390625 31.78125 6.390625 
Q 38.8125 6.390625 42.859375 10.171875 
Q 46.921875 13.96875 46.921875 20.515625 
Q 46.921875 27.09375 42.890625 30.859375 
Q 38.875 34.625 31.78125 34.625 
z
M 21.921875 38.8125 
Q 15.578125 40.375 12.03125 44.71875 
Q 8.5 49.078125 8.5 55.328125 
Q 8.5 64.0625 14.71875 69.140625 
Q 20.953125 74.21875 31.78125 74.21875 
Q 42.671875 74.21875 48.875 69.140625 
Q 55.078125 64.0625 55.078125 55.328125 
Q 55.078125 49.078125 51.53125 44.71875 
Q 48 40.375 41.703125 38.8125 
Q 48.828125 37.15625 52.796875 32.3125 
Q 56.78125 27.484375 56.78125 20.515625 
Q 56.78125 9.90625 50.3125 4.234375 
Q 43.84375 -1.421875 31.78125 -1.421875 
Q 19.734375 -1.421875 13.25 4.234375 
Q 6.78125 9.90625 6.78125 20.515625 
Q 6.78125 27.484375 10.78125 32.3125 
Q 14.796875 37.15625 21.921875 38.8125 
z
M 18.3125 54.390625 
Q 18.3125 48.734375 21.84375 45.5625 
Q 25.390625 42.390625 31.78125 42.390625 
Q 38.140625 42.390625 41.71875 45.5625 
Q 45.3125 48.734375 45.3125 54.390625 
Q 45.3125 60.0625 41.71875 63.234375 
Q 38.140625 66.40625 31.78125 66.40625 
Q 25.390625 66.40625 21.84375 63.234375 
Q 18.3125 60.0625 18.3125 54.390625 
z
" id="DejaVuSans-38"/>
      </defs>
      <g transform="translate(153.075 154.135079)scale(0.1 -0.1)">
       <use xlink:href="#DejaVuSans-38"/>
       <use x="63.623047" xlink:href="#DejaVuSans-30"/>
      </g>
     </g>
    </g>
   </g>
   <g id="line2d_14">
    <path clip-path="url(#pd205a58691)" d="M 221.498182 533.7252 
L 222.947532 526.680421 
L 224.396883 526.680421 
L 227.295584 498.501304 
L 228.744935 435.050369 
L 230.194286 420.96081 
L 231.643636 413.916031 
L 233.092987 371.647357 
L 234.542338 350.465096 
L 237.441039 336.375537 
L 238.89039 322.285979 
L 240.33974 315.2412 
L 246.137143 315.2412 
L 247.586494 308.196421 
L 253.383896 308.196421 
L 254.833247 301.151642 
L 257.731948 301.151642 
L 259.181299 297.701138 
L 260.630649 297.701138 
L 262.08 294.106863 
L 266.428052 294.106863 
L 267.877403 287.062084 
L 269.326753 287.062084 
L 270.776104 286.822465 
L 272.225455 283.371961 
L 273.674805 283.371961 
L 275.124156 279.585991 
L 276.573506 276.231335 
L 278.022857 276.231335 
L 279.472208 272.972525 
L 286.718961 272.972525 
L 288.168312 269.090708 
L 289.617662 265.927746 
L 292.516364 265.927746 
L 293.965714 258.882967 
L 304.111169 258.882967 
L 305.560519 254.761532 
L 307.00987 251.838188 
L 325.851429 251.838188 
L 327.300779 247.620905 
L 330.199481 247.620905 
L 333.098182 244.793409 
L 354.838442 244.793409 
L 356.287792 237.74863 
L 376.578701 237.74863 
L 378.028052 233.291729 
L 385.274805 233.291729 
L 386.724156 231.422706 
L 388.173506 230.655927 
L 415.711169 230.655927 
L 417.160519 228.115973 
L 418.60987 226.151102 
L 424.407273 226.151102 
L 425.856623 224.042461 
L 427.305974 224.042461 
L 428.755325 223.611148 
L 476.583896 223.611148 
L 478.033247 221.502506 
L 479.482597 219.010476 
L 482.381299 219.010476 
L 483.830649 216.566369 
L 541.804675 216.566369 
L 544.703377 211.869849 
L 556.298182 211.869849 
L 557.747532 211.726078 
L 559.196883 211.726078 
L 560.646234 209.52159 
L 654.854026 209.52159 
L 656.303377 209.329895 
L 657.752727 204.681299 
L 675.144935 204.681299 
L 676.594286 202.47681 
L 743.264416 202.47681 
L 744.713766 197.540673 
L 749.061818 197.540673 
L 750.511169 195.432031 
L 838.921558 195.432031 
L 840.370909 194.569405 
L 841.82026 194.569405 
L 844.718961 190.400046 
L 859.212468 190.400046 
L 860.661818 189.249878 
L 862.111169 188.387252 
L 934.578701 188.387252 
L 936.028052 185.176366 
L 937.477403 185.176366 
L 938.926753 183.25942 
L 946.173506 183.25942 
L 947.622857 181.342473 
L 1046.178701 181.342473 
L 1047.628052 177.939893 
L 1050.526753 174.297694 
L 1095.456623 174.297694 
L 1096.905974 168.930243 
L 1098.355325 167.252915 
L 1136.038442 167.252915 
L 1137.487792 161.789617 
L 1138.937143 160.208136 
L 1147.633247 160.208136 
L 1149.082597 157.716105 
L 1151.981299 154.64899 
L 1154.88 151.821494 
L 1156.329351 146.118577 
L 1157.778701 146.118577 
L 1159.228052 141.613753 
L 1160.677403 139.073798 
L 1170.822857 139.073798 
L 1172.272208 132.029019 
L 1176.62026 132.029019 
L 1178.06961 124.98424 
L 1182.417662 124.98424 
L 1183.867013 117.939461 
L 1186.765714 117.939461 
L 1188.215065 111.709384 
L 1189.664416 110.846758 
L 1191.113766 110.846758 
L 1192.563117 103.801979 
L 1194.012468 103.801979 
L 1195.461818 96.7572 
L 1195.461818 96.7572 
" style="fill:none;stroke:#000000;stroke-linecap:square;"/>
   </g>
   <g id="line2d_15">
    <path clip-path="url(#pd205a58691)" d="M 221.498182 533.7252 
L 222.947532 526.680421 
L 224.396883 533.7252 
L 225.846234 512.255397 
L 227.295584 505.546084 
L 228.744935 491.456525 
L 230.194286 447.893912 
L 231.643636 498.501304 
L 233.092987 371.647357 
L 234.542338 364.602577 
L 235.991688 343.420316 
L 237.441039 449.139927 
L 238.89039 399.826473 
L 240.33974 428.00559 
L 241.789091 426.424109 
L 243.238442 326.311567 
L 244.687792 426.424109 
L 246.137143 449.139927 
L 247.586494 399.826473 
L 249.035844 413.916031 
L 250.485195 329.330758 
L 251.934545 330.433003 
L 253.383896 404.954306 
L 254.833247 406.871252 
L 256.282597 417.55823 
L 257.731948 301.151642 
L 259.181299 428.00559 
L 260.630649 426.424109 
L 262.08 413.916031 
L 263.529351 442.095148 
L 264.978701 412.142856 
L 266.428052 413.916031 
L 267.877403 350.465096 
L 269.326753 315.2412 
L 270.776104 406.871252 
L 272.225455 297.701138 
L 273.674805 283.371961 
L 275.124156 385.736915 
L 276.573506 276.231335 
L 278.022857 294.106863 
L 279.472208 406.871252 
L 280.921558 435.050369 
L 282.370909 413.916031 
L 283.82026 378.692136 
L 285.26961 404.954306 
L 286.718961 323.148605 
L 288.168312 378.692136 
L 289.617662 304.841764 
L 291.067013 447.893912 
L 292.516364 326.311567 
L 293.965714 301.151642 
L 295.415065 428.00559 
L 296.864416 442.095148 
L 298.313766 442.095148 
L 299.763117 319.123017 
L 301.212468 311.982391 
L 302.661818 392.781694 
L 304.111169 287.062084 
L 305.560519 371.647357 
L 307.00987 364.602577 
L 308.459221 280.017304 
L 309.908571 294.106863 
L 311.357922 357.557798 
L 312.807273 435.050369 
L 314.256623 447.893912 
L 315.705974 294.106863 
L 317.155325 371.647357 
L 318.604675 435.050369 
L 320.054026 308.196421 
L 321.503377 378.692136 
L 322.952727 311.982391 
L 324.402078 442.095148 
L 325.851429 301.151642 
L 327.300779 446.599973 
L 328.75013 329.330758 
L 330.199481 287.062084 
L 331.648831 362.062623 
L 333.098182 322.285979 
L 334.547532 484.411746 
L 335.996883 399.826473 
L 337.446234 294.106863 
L 338.895584 392.781694 
L 340.344935 322.285979 
L 341.794286 357.557798 
L 343.243636 319.123017 
L 344.692987 442.095148 
L 346.142338 301.151642 
L 347.591688 397.813679 
L 349.041039 456.184706 
L 350.49039 428.00559 
L 351.93974 329.330758 
L 353.389091 301.151642 
L 354.838442 390.673053 
L 356.287792 301.151642 
L 357.737143 294.106863 
L 359.186494 456.184706 
L 360.635844 301.39126 
L 362.085195 357.557798 
L 363.534545 326.311567 
L 364.983896 442.095148 
L 366.433247 403.037359 
L 367.882597 399.826473 
L 369.331948 301.39126 
L 370.781299 413.916031 
L 372.230649 301.151642 
L 373.68 354.921997 
L 375.129351 283.371961 
L 376.578701 392.781694 
L 378.028052 287.062084 
L 379.477403 280.017304 
L 380.926753 251.838188 
L 382.376104 265.927746 
L 383.825455 272.972525 
L 385.274805 336.375537 
L 386.724156 251.838188 
L 388.173506 315.2412 
L 389.622857 294.106863 
L 391.072208 258.882967 
L 392.521558 272.972525 
L 393.970909 449.139927 
L 395.42026 301.151642 
L 396.86961 442.095148 
L 398.318961 329.330758 
L 399.768312 364.602577 
L 401.217662 463.229485 
L 402.667013 385.736915 
L 404.116364 329.330758 
L 405.565714 280.017304 
L 407.015065 319.123017 
L 408.464416 440.753285 
L 409.913766 315.2412 
L 411.363117 272.972525 
L 412.812468 290.512588 
L 414.261818 347.733447 
L 415.711169 294.106863 
L 417.160519 322.285979 
L 418.60987 357.557798 
L 420.059221 272.972525 
L 421.508571 265.927746 
L 422.957922 449.139927 
L 424.407273 226.151102 
L 425.856623 301.151642 
L 427.305974 340.59282 
L 428.755325 258.882967 
L 430.204675 304.841764 
L 431.654026 223.611148 
L 433.103377 283.371961 
L 434.552727 357.557798 
L 436.002078 265.927746 
L 437.451429 301.151642 
L 438.900779 290.512588 
L 440.35013 364.602577 
L 441.799481 287.062084 
L 443.248831 340.59282 
L 444.698182 301.151642 
L 446.147532 343.420316 
L 447.596883 269.090708 
L 449.046234 350.465096 
L 450.495584 287.062084 
L 451.944935 364.602577 
L 453.394286 301.151642 
L 454.843636 383.532426 
L 456.292987 336.375537 
L 457.742338 280.017304 
L 459.191688 301.151642 
L 460.641039 343.420316 
L 462.09039 308.627734 
L 463.53974 428.00559 
L 464.989091 287.062084 
L 466.438442 361.487539 
L 467.887792 290.512588 
L 469.337143 272.972525 
L 470.786494 294.106863 
L 472.235844 244.793409 
L 473.685195 315.2412 
L 475.134545 350.465096 
L 476.583896 399.826473 
L 478.033247 258.882967 
L 479.482597 308.196421 
L 480.931948 258.882967 
L 482.381299 265.927746 
L 483.830649 311.982391 
L 485.28 390.673053 
L 486.729351 315.2412 
L 488.178701 329.330758 
L 489.628052 287.062084 
L 491.077403 301.151642 
L 492.526753 463.229485 
L 493.976104 265.927746 
L 495.425455 340.59282 
L 496.874805 258.882967 
L 498.324156 308.196421 
L 499.773506 412.142856 
L 501.222857 392.781694 
L 502.672208 319.123017 
L 504.121558 272.972525 
L 505.570909 350.465096 
L 507.02026 280.017304 
L 508.46961 350.465096 
L 509.918961 258.882967 
L 511.368312 336.375537 
L 512.817662 315.2412 
L 514.267013 337.669476 
L 515.716364 308.196421 
L 517.165714 265.927746 
L 518.615065 378.692136 
L 520.064416 397.813679 
L 521.513766 336.375537 
L 522.963117 428.00559 
L 524.412468 265.927746 
L 525.861818 301.39126 
L 527.311169 301.151642 
L 528.760519 269.090708 
L 530.20987 247.620905 
L 531.659221 304.841764 
L 533.108571 343.420316 
L 534.557922 244.793409 
L 536.007273 308.196421 
L 537.456623 399.826473 
L 538.905974 371.647357 
L 540.355325 244.793409 
L 541.804675 258.882967 
L 543.254026 237.74863 
L 544.703377 294.106863 
L 546.152727 390.673053 
L 547.602078 397.813679 
L 549.051429 297.701138 
L 550.500779 237.74863 
L 551.95013 287.062084 
L 553.399481 272.972525 
L 554.848831 265.927746 
L 556.298182 390.673053 
L 557.747532 258.882967 
L 559.196883 364.602577 
L 560.646234 304.841764 
L 562.095584 301.151642 
L 563.544935 379.123449 
L 564.994286 251.838188 
L 566.443636 369.20325 
L 567.892987 280.017304 
L 569.342338 287.062084 
L 570.791688 244.793409 
L 572.241039 336.375537 
L 573.69039 254.761532 
L 575.13974 265.927746 
L 576.589091 237.74863 
L 578.038442 290.512588 
L 580.937143 326.311567 
L 582.386494 308.196421 
L 583.835844 395.752961 
L 585.285195 378.692136 
L 586.734545 287.062084 
L 588.183896 276.231335 
L 589.633247 287.062084 
L 591.082597 435.050369 
L 592.531948 251.838188 
L 593.981299 322.285979 
L 595.430649 337.669476 
L 596.88 247.620905 
L 598.329351 329.330758 
L 599.778701 276.231335 
L 601.228052 251.838188 
L 602.677403 371.647357 
L 604.126753 237.74863 
L 605.576104 404.954306 
L 607.025455 301.39126 
L 608.474805 336.375537 
L 609.924156 258.882967 
L 611.373506 413.916031 
L 612.822857 251.838188 
L 614.272208 265.927746 
L 615.721558 287.062084 
L 617.170909 413.916031 
L 618.62026 308.196421 
L 620.06961 413.916031 
L 621.518961 294.106863 
L 622.968312 209.52159 
L 624.417662 287.062084 
L 625.867013 333.452194 
L 627.316364 279.585991 
L 628.765714 258.882967 
L 630.215065 265.927746 
L 631.664416 265.927746 
L 633.113766 340.59282 
L 634.563117 251.838188 
L 636.012468 350.465096 
L 637.461818 399.826473 
L 638.911169 383.532426 
L 640.360519 304.841764 
L 641.80987 315.2412 
L 643.259221 350.465096 
L 644.708571 287.062084 
L 646.157922 315.2412 
L 647.607273 349.410775 
L 649.056623 456.184706 
L 650.505974 357.557798 
L 651.955325 315.2412 
L 653.404675 470.274264 
L 654.854026 287.062084 
L 656.303377 283.371961 
L 657.752727 294.106863 
L 659.202078 294.106863 
L 660.651429 272.972525 
L 662.100779 343.420316 
L 663.55013 265.927746 
L 664.999481 261.902158 
L 666.448831 315.2412 
L 667.898182 301.151642 
L 669.347532 440.753285 
L 670.796883 272.972525 
L 672.246234 287.062084 
L 673.695584 336.375537 
L 675.144935 272.972525 
L 676.594286 308.196421 
L 678.043636 251.838188 
L 679.492987 272.972525 
L 680.942338 258.882967 
L 682.391688 251.838188 
L 683.841039 369.20325 
L 685.29039 357.557798 
L 686.73974 412.142856 
L 688.189091 258.882967 
L 689.638442 343.420316 
L 691.087792 272.972525 
L 692.537143 385.736915 
L 693.986494 280.017304 
L 695.435844 247.620905 
L 696.885195 237.74863 
L 698.334545 280.017304 
L 699.783896 258.882967 
L 701.233247 347.733447 
L 702.682597 254.761532 
L 704.131948 297.701138 
L 705.581299 326.311567 
L 707.030649 347.733447 
L 708.48 265.927746 
L 709.929351 250.544249 
L 711.378701 392.781694 
L 712.828052 254.761532 
L 714.277403 301.151642 
L 715.726753 433.564735 
L 717.176104 357.557798 
L 718.625455 251.838188 
L 720.074805 301.151642 
L 721.524156 251.838188 
L 722.973506 251.838188 
L 724.422857 261.902158 
L 725.872208 329.330758 
L 727.321558 287.062084 
L 728.770909 280.017304 
L 730.22026 350.465096 
L 731.66961 343.420316 
L 733.118961 294.106863 
L 734.568312 251.838188 
L 736.017662 294.106863 
L 737.467013 371.647357 
L 738.916364 357.557798 
L 740.365714 301.151642 
L 741.815065 392.781694 
L 743.264416 265.927746 
L 744.713766 399.826473 
L 746.163117 294.106863 
L 747.612468 413.916031 
L 749.061818 287.062084 
L 750.511169 350.465096 
L 751.960519 276.231335 
L 753.40987 322.285979 
L 754.859221 344.953874 
L 756.308571 354.921997 
L 757.757922 279.585991 
L 759.207273 280.017304 
L 760.656623 301.151642 
L 762.105974 251.838188 
L 763.555325 265.927746 
L 765.004675 350.465096 
L 766.454026 265.927746 
L 767.903377 392.781694 
L 769.352727 246.183195 
L 770.802078 369.20325 
L 772.251429 280.017304 
L 773.700779 357.557798 
L 775.15013 322.285979 
L 776.599481 315.2412 
L 778.048831 237.74863 
L 779.498182 362.062623 
L 780.947532 378.692136 
L 782.396883 280.017304 
L 783.846234 376.343876 
L 785.295584 311.982391 
L 786.744935 385.736915 
L 788.194286 251.838188 
L 789.643636 364.602577 
L 791.092987 283.371961 
L 792.542338 251.838188 
L 793.991688 283.371961 
L 795.441039 254.761532 
L 796.89039 287.062084 
L 798.33974 258.882967 
L 799.789091 347.733447 
L 801.238442 269.090708 
L 802.687792 376.343876 
L 804.137143 322.285979 
L 805.586494 364.602577 
L 807.035844 237.74863 
L 808.485195 383.532426 
L 809.934545 269.090708 
L 811.383896 354.921997 
L 812.833247 304.841764 
L 814.282597 350.465096 
L 815.731948 280.017304 
L 817.181299 240.480279 
L 818.630649 350.465096 
L 820.08 243.259851 
L 821.529351 244.793409 
L 822.978701 364.602577 
L 824.428052 392.781694 
L 825.877403 350.465096 
L 827.326753 287.062084 
L 828.776104 272.972525 
L 830.225455 322.285979 
L 831.674805 326.311567 
L 833.124156 297.701138 
L 834.573506 343.420316 
L 836.022857 350.465096 
L 837.472208 280.017304 
L 838.921558 258.882967 
L 840.370909 343.420316 
L 841.82026 272.972525 
L 843.26961 336.375537 
L 844.718961 378.692136 
L 846.168312 253.56344 
L 847.617662 244.793409 
L 849.067013 357.557798 
L 850.516364 294.106863 
L 851.965714 369.20325 
L 853.415065 258.882967 
L 854.864416 315.2412 
L 856.313766 362.062623 
L 857.763117 390.673053 
L 859.212468 442.095148 
L 860.661818 251.838188 
L 862.111169 376.343876 
L 863.560519 322.285979 
L 865.00987 308.196421 
L 866.459221 251.838188 
L 867.908571 319.123017 
L 869.357922 343.420316 
L 870.807273 261.902158 
L 872.256623 413.916031 
L 873.705974 371.647357 
L 875.155325 258.882967 
L 876.604675 265.927746 
L 878.054026 237.74863 
L 879.503377 294.106863 
L 880.952727 301.151642 
L 882.402078 392.781694 
L 885.300779 350.465096 
L 886.75013 230.655927 
L 888.199481 265.927746 
L 889.648831 378.692136 
L 891.098182 347.733447 
L 892.547532 403.037359 
L 893.996883 221.502506 
L 895.446234 371.647357 
L 896.895584 350.465096 
L 898.344935 240.480279 
L 899.794286 354.921997 
L 901.243636 251.838188 
L 902.692987 392.781694 
L 904.142338 237.74863 
L 905.591688 354.921997 
L 907.041039 258.882967 
L 908.49039 287.062084 
L 909.93974 301.151642 
L 911.389091 308.196421 
L 912.838442 336.375537 
L 914.287792 311.982391 
L 915.737143 322.285979 
L 917.186494 258.882967 
L 918.635844 258.882967 
L 920.085195 304.841764 
L 921.534545 251.838188 
L 922.983896 319.123017 
L 924.433247 294.106863 
L 925.882597 343.420316 
L 927.331948 333.452194 
L 928.781299 315.2412 
L 930.230649 449.139927 
L 931.68 244.793409 
L 933.129351 272.972525 
L 934.578701 347.733447 
L 936.028052 326.311567 
L 937.477403 343.420316 
L 938.926753 247.620905 
L 940.376104 347.733447 
L 941.825455 329.330758 
L 943.274805 329.330758 
L 944.724156 244.793409 
L 946.173506 371.647357 
L 947.622857 290.512588 
L 949.072208 364.602577 
L 950.521558 269.090708 
L 951.970909 265.927746 
L 953.42026 329.330758 
L 954.86961 385.736915 
L 956.318961 315.2412 
L 957.768312 322.285979 
L 959.217662 371.647357 
L 960.667013 287.062084 
L 962.116364 357.557798 
L 963.565714 280.017304 
L 965.015065 413.916031 
L 966.464416 378.692136 
L 967.913766 420.96081 
L 969.363117 406.871252 
L 970.812468 343.420316 
L 972.261818 290.512588 
L 973.711169 301.151642 
L 975.160519 294.106863 
L 976.60987 250.544249 
L 978.059221 301.151642 
L 979.508571 399.826473 
L 980.957922 301.151642 
L 982.407273 428.00559 
L 983.856623 280.017304 
L 985.305974 357.557798 
L 986.755325 280.017304 
L 988.204675 244.793409 
L 989.654026 343.420316 
L 991.103377 269.090708 
L 992.552727 428.00559 
L 994.002078 244.793409 
L 996.900779 315.2412 
L 998.35013 357.557798 
L 999.799481 304.841764 
L 1001.248831 294.106863 
L 1002.698182 265.927746 
L 1004.147532 280.017304 
L 1005.596883 413.916031 
L 1007.046234 322.285979 
L 1008.495584 280.017304 
L 1009.944935 357.557798 
L 1011.394286 329.330758 
L 1012.843636 343.420316 
L 1014.292987 244.793409 
L 1015.742338 276.231335 
L 1017.191688 315.2412 
L 1018.641039 357.557798 
L 1020.09039 226.151102 
L 1021.53974 343.420316 
L 1022.989091 385.736915 
L 1024.438442 333.452194 
L 1025.887792 258.882967 
L 1027.337143 350.465096 
L 1028.786494 264.15457 
L 1030.235844 420.96081 
L 1033.134545 223.611148 
L 1034.583896 399.826473 
L 1036.033247 251.838188 
L 1037.482597 350.465096 
L 1038.931948 428.00559 
L 1040.381299 258.882967 
L 1041.830649 378.692136 
L 1043.28 297.701138 
L 1044.729351 272.972525 
L 1046.178701 350.465096 
L 1047.628052 413.916031 
L 1049.077403 413.916031 
L 1050.526753 385.736915 
L 1051.976104 244.793409 
L 1053.425455 272.972525 
L 1054.874805 378.692136 
L 1056.324156 420.96081 
L 1057.773506 265.927746 
L 1059.222857 340.59282 
L 1060.672208 272.972525 
L 1062.121558 223.611148 
L 1065.02026 265.927746 
L 1066.46961 272.972525 
L 1067.918961 404.954306 
L 1069.368312 329.330758 
L 1070.817662 287.062084 
L 1072.267013 283.371961 
L 1073.716364 272.972525 
L 1075.165714 329.330758 
L 1076.615065 265.927746 
L 1078.064416 283.371961 
L 1079.513766 272.972525 
L 1080.963117 226.151102 
L 1082.412468 369.20325 
L 1083.861818 230.655927 
L 1085.311169 319.123017 
L 1086.760519 283.371961 
L 1088.20987 237.74863 
L 1089.659221 247.620905 
L 1091.108571 294.106863 
L 1092.557922 433.564735 
L 1094.007273 413.916031 
L 1095.456623 413.916031 
L 1096.905974 330.433003 
L 1098.355325 287.062084 
L 1099.804675 308.196421 
L 1101.254026 301.151642 
L 1102.703377 343.420316 
L 1104.152727 287.062084 
L 1105.602078 376.343876 
L 1107.051429 308.196421 
L 1108.500779 329.330758 
L 1109.95013 406.871252 
L 1111.399481 326.311567 
L 1112.848831 336.375537 
L 1114.298182 287.062084 
L 1115.747532 287.062084 
L 1117.196883 278.627518 
L 1118.646234 294.106863 
L 1120.095584 383.963739 
L 1121.544935 290.512588 
L 1122.994286 231.422706 
L 1124.443636 287.062084 
L 1125.892987 280.017304 
L 1127.342338 280.017304 
L 1128.791688 287.062084 
L 1130.241039 272.972525 
L 1131.69039 395.752961 
L 1133.13974 287.062084 
L 1134.589091 336.375537 
L 1136.038442 419.283482 
L 1137.487792 280.017304 
L 1138.937143 276.231335 
L 1140.386494 287.062084 
L 1141.835844 287.062084 
L 1143.285195 247.620905 
L 1144.734545 315.2412 
L 1146.183896 297.701138 
L 1147.633247 315.2412 
L 1149.082597 265.927746 
L 1150.531948 258.882967 
L 1151.981299 139.073798 
L 1153.430649 251.838188 
L 1154.88 322.285979 
L 1156.329351 319.123017 
L 1157.778701 308.196421 
L 1159.228052 308.196421 
L 1160.677403 209.52159 
L 1162.126753 181.342473 
L 1163.576104 304.841764 
L 1165.025455 168.930243 
L 1166.474805 223.611148 
L 1167.924156 323.148605 
L 1169.373506 185.176366 
L 1170.822857 230.655927 
L 1172.272208 240.480279 
L 1173.721558 315.2412 
L 1175.170909 181.342473 
L 1176.62026 315.2412 
L 1178.06961 139.073798 
L 1179.518961 265.927746 
L 1180.968312 195.432031 
L 1182.417662 188.387252 
L 1183.867013 188.387252 
L 1185.316364 202.47681 
L 1186.765714 132.029019 
L 1188.215065 139.073798 
L 1189.664416 154.64899 
L 1191.113766 202.47681 
L 1192.563117 216.566369 
L 1194.012468 211.869849 
L 1195.461818 168.930243 
L 1195.461818 168.930243 
" style="fill:none;stroke:#ff0000;stroke-linecap:square;stroke-width:0.5;"/>
   </g>
   <g id="line2d_16">
    <path clip-path="url(#pd205a58691)" d="M 221.498182 533.7252 
L 222.947532 526.680421 
L 224.396883 533.7252 
L 225.846234 512.590863 
L 227.295584 512.590863 
L 228.744935 491.456525 
L 230.194286 484.411746 
L 231.643636 498.501304 
L 233.092987 456.184706 
L 234.542338 388.516488 
L 235.991688 343.420316 
L 237.441039 406.871252 
L 238.89039 406.871252 
L 240.33974 413.916031 
L 241.789091 371.647357 
L 243.238442 322.285979 
L 244.687792 433.564735 
L 246.137143 449.139927 
L 247.586494 343.420316 
L 249.035844 420.96081 
L 250.485195 326.311567 
L 251.934545 336.375537 
L 253.383896 413.916031 
L 254.833247 350.465096 
L 256.282597 428.00559 
L 257.731948 301.151642 
L 259.181299 385.736915 
L 260.630649 350.465096 
L 262.08 417.55823 
L 263.529351 404.954306 
L 264.978701 413.916031 
L 266.428052 413.916031 
L 267.877403 352.190348 
L 269.326753 308.196421 
L 270.776104 364.602577 
L 272.225455 322.285979 
L 273.674805 283.371961 
L 275.124156 420.96081 
L 276.573506 276.231335 
L 278.022857 280.017304 
L 279.472208 406.871252 
L 280.921558 413.916031 
L 282.370909 343.420316 
L 283.82026 364.602577 
L 285.26961 413.916031 
L 286.718961 330.433003 
L 288.168312 383.532426 
L 289.617662 308.196421 
L 291.067013 404.954306 
L 292.516364 322.285979 
L 293.965714 301.151642 
L 295.415065 397.813679 
L 296.864416 442.095148 
L 298.313766 447.893912 
L 299.763117 322.285979 
L 301.212468 322.285979 
L 302.661818 385.736915 
L 304.111169 283.371961 
L 305.560519 378.692136 
L 307.00987 371.647357 
L 308.459221 297.701138 
L 309.908571 297.701138 
L 311.357922 371.647357 
L 312.807273 399.826473 
L 314.256623 449.139927 
L 315.705974 315.2412 
L 317.155325 371.647357 
L 318.604675 420.96081 
L 320.054026 308.196421 
L 321.503377 385.736915 
L 322.952727 315.2412 
L 324.402078 445.25811 
L 325.851429 294.106863 
L 327.300779 406.871252 
L 328.75013 329.330758 
L 330.199481 287.062084 
L 331.648831 301.151642 
L 333.098182 326.311567 
L 334.547532 491.456525 
L 335.996883 347.733447 
L 337.446234 294.106863 
L 338.895584 392.781694 
L 340.344935 326.311567 
L 341.794286 357.557798 
L 343.243636 294.106863 
L 344.692987 404.954306 
L 346.142338 297.701138 
L 347.591688 364.602577 
L 349.041039 456.184706 
L 350.49039 435.050369 
L 351.93974 336.375537 
L 353.389091 301.151642 
L 354.838442 399.826473 
L 356.287792 301.151642 
L 357.737143 294.106863 
L 359.186494 449.139927 
L 360.635844 301.151642 
L 362.085195 364.602577 
L 363.534545 315.2412 
L 364.983896 442.095148 
L 366.433247 378.692136 
L 367.882597 357.557798 
L 369.331948 297.701138 
L 370.781299 477.366967 
L 372.230649 311.982391 
L 373.68 357.557798 
L 375.129351 275.656251 
L 376.578701 376.343876 
L 378.028052 287.062084 
L 379.477403 272.972525 
L 380.926753 251.838188 
L 382.376104 280.017304 
L 383.825455 279.585991 
L 385.274805 311.982391 
L 386.724156 243.259851 
L 388.173506 322.285979 
L 389.622857 290.512588 
L 391.072208 261.902158 
L 392.521558 272.301594 
L 393.970909 399.826473 
L 395.42026 304.841764 
L 396.86961 419.283482 
L 398.318961 356.79102 
L 399.768312 364.602577 
L 401.217662 449.139927 
L 404.116364 308.196421 
L 405.565714 280.017304 
L 407.015065 322.285979 
L 408.464416 392.781694 
L 409.913766 322.285979 
L 411.363117 280.017304 
L 412.812468 301.151642 
L 414.261818 329.330758 
L 415.711169 301.151642 
L 417.160519 347.733447 
L 418.60987 350.465096 
L 420.059221 272.301594 
L 421.508571 272.972525 
L 422.957922 442.095148 
L 424.407273 290.512588 
L 425.856623 297.701138 
L 427.305974 336.375537 
L 428.755325 258.882967 
L 430.204675 290.512588 
L 431.654026 223.611148 
L 433.103377 297.701138 
L 434.552727 357.557798 
L 436.002078 258.882967 
L 437.451429 297.701138 
L 438.900779 280.017304 
L 440.35013 350.465096 
L 441.799481 294.106863 
L 443.248831 336.375537 
L 444.698182 308.196421 
L 446.147532 357.557798 
L 447.596883 272.972525 
L 449.046234 354.921997 
L 450.495584 290.512588 
L 451.944935 376.343876 
L 453.394286 297.701138 
L 454.843636 329.330758 
L 456.292987 329.330758 
L 457.742338 272.972525 
L 459.191688 301.151642 
L 460.641039 362.062623 
L 462.09039 297.701138 
L 463.53974 426.424109 
L 464.989091 297.701138 
L 466.438442 357.557798 
L 467.887792 294.106863 
L 469.337143 276.231335 
L 470.786494 280.017304 
L 472.235844 244.793409 
L 473.685195 354.921997 
L 475.134545 350.465096 
L 476.583896 350.465096 
L 478.033247 258.882967 
L 479.482597 308.196421 
L 480.931948 258.882967 
L 482.381299 269.090708 
L 483.830649 294.106863 
L 485.28 364.602577 
L 486.729351 308.196421 
L 488.178701 333.452194 
L 489.628052 280.017304 
L 491.077403 294.106863 
L 492.526753 463.229485 
L 493.976104 265.927746 
L 495.425455 322.285979 
L 496.874805 251.838188 
L 498.324156 311.982391 
L 499.773506 343.420316 
L 501.222857 369.20325 
L 502.672208 336.375537 
L 504.121558 276.231335 
L 505.570909 357.557798 
L 507.02026 280.017304 
L 508.46961 343.420316 
L 509.918961 260.943685 
L 511.368312 336.375537 
L 512.817662 304.841764 
L 514.267013 329.330758 
L 515.716364 305.17723 
L 517.165714 272.972525 
L 518.615065 385.736915 
L 520.064416 401.024565 
L 521.513766 354.921997 
L 522.963117 428.00559 
L 524.412468 269.090708 
L 525.861818 297.701138 
L 527.311169 315.2412 
L 528.760519 276.231335 
L 530.20987 244.793409 
L 531.659221 323.148605 
L 533.108571 364.602577 
L 534.557922 244.793409 
L 536.007273 315.2412 
L 537.456623 392.781694 
L 538.905974 371.647357 
L 540.355325 244.793409 
L 541.804675 261.902158 
L 543.254026 237.74863 
L 544.703377 294.106863 
L 546.152727 390.673053 
L 547.602078 357.557798 
L 549.051429 294.106863 
L 550.500779 237.74863 
L 551.95013 287.062084 
L 553.399481 272.972525 
L 554.848831 265.927746 
L 556.298182 329.330758 
L 557.747532 251.838188 
L 559.196883 426.424109 
L 560.646234 301.151642 
L 562.095584 283.371961 
L 563.544935 357.557798 
L 564.994286 251.838188 
L 566.443636 364.602577 
L 567.892987 280.017304 
L 569.342338 283.371961 
L 570.791688 240.480279 
L 572.241039 333.452194 
L 573.69039 247.620905 
L 575.13974 272.972525 
L 576.589091 240.480279 
L 578.038442 294.106863 
L 579.487792 315.2412 
L 580.937143 343.420316 
L 582.386494 304.841764 
L 583.835844 371.647357 
L 585.285195 378.692136 
L 586.734545 283.371961 
L 588.183896 269.090708 
L 589.633247 301.151642 
L 591.082597 383.532426 
L 592.531948 251.838188 
L 593.981299 364.602577 
L 595.430649 315.2412 
L 596.88 244.793409 
L 598.329351 322.285979 
L 599.778701 261.902158 
L 601.228052 258.882967 
L 602.677403 364.602577 
L 604.126753 236.023378 
L 605.576104 420.96081 
L 607.025455 294.106863 
L 608.474805 357.557798 
L 609.924156 258.882967 
L 611.373506 399.826473 
L 612.822857 258.882967 
L 614.272208 261.902158 
L 615.721558 272.972525 
L 617.170909 385.736915 
L 618.62026 308.196421 
L 620.06961 420.96081 
L 621.518961 371.647357 
L 622.968312 343.420316 
L 624.417662 280.017304 
L 625.867013 336.375537 
L 627.316364 280.017304 
L 628.765714 254.761532 
L 630.215065 269.090708 
L 631.664416 251.838188 
L 633.113766 329.330758 
L 634.563117 265.927746 
L 636.012468 343.420316 
L 637.461818 350.465096 
L 638.911169 435.050369 
L 640.360519 301.151642 
L 641.80987 315.2412 
L 643.259221 336.375537 
L 644.708571 290.512588 
L 646.157922 315.912131 
L 647.607273 364.602577 
L 649.056623 378.692136 
L 651.955325 322.285979 
L 653.404675 420.96081 
L 654.854026 287.062084 
L 656.303377 287.062084 
L 657.752727 294.106863 
L 659.202078 308.196421 
L 660.651429 301.151642 
L 662.100779 336.375537 
L 663.55013 272.972525 
L 664.999481 258.882967 
L 666.448831 311.982391 
L 667.898182 294.106863 
L 669.347532 447.893912 
L 670.796883 275.656251 
L 672.246234 294.106863 
L 673.695584 350.465096 
L 675.144935 294.106863 
L 676.594286 308.196421 
L 678.043636 258.882967 
L 679.492987 290.512588 
L 680.942338 269.090708 
L 682.391688 251.838188 
L 683.841039 371.647357 
L 685.29039 357.557798 
L 686.73974 383.532426 
L 688.189091 258.882967 
L 689.638442 357.557798 
L 691.087792 280.017304 
L 692.537143 371.647357 
L 693.986494 265.927746 
L 695.435844 251.838188 
L 696.885195 258.882967 
L 698.334545 286.822465 
L 699.783896 251.838188 
L 701.233247 350.465096 
L 702.682597 254.761532 
L 704.131948 308.196421 
L 705.581299 329.330758 
L 707.030649 329.330758 
L 708.48 280.017304 
L 709.929351 240.480279 
L 711.378701 329.330758 
L 712.828052 247.620905 
L 714.277403 294.106863 
L 715.726753 383.532426 
L 717.176104 385.736915 
L 718.625455 247.620905 
L 720.074805 301.151642 
L 721.524156 251.838188 
L 722.973506 251.838188 
L 724.422857 265.927746 
L 725.872208 329.330758 
L 727.321558 280.017304 
L 728.770909 283.371961 
L 731.66961 403.037359 
L 733.118961 315.2412 
L 734.568312 251.838188 
L 736.017662 280.017304 
L 737.467013 376.487647 
L 738.916364 357.557798 
L 740.365714 308.196421 
L 741.815065 399.826473 
L 743.264416 272.972525 
L 744.713766 442.095148 
L 746.163117 304.841764 
L 747.612468 385.736915 
L 749.061818 294.106863 
L 750.511169 350.465096 
L 751.960519 269.090708 
L 753.40987 337.669476 
L 754.859221 336.375537 
L 756.308571 364.602577 
L 757.757922 294.106863 
L 759.207273 272.972525 
L 760.656623 301.151642 
L 762.105974 257.780723 
L 763.555325 265.927746 
L 765.004675 433.564735 
L 766.454026 272.301594 
L 767.903377 412.142856 
L 769.352727 244.793409 
L 770.802078 390.673053 
L 772.251429 280.017304 
L 773.700779 340.59282 
L 775.15013 333.452194 
L 776.599481 347.733447 
L 778.048831 237.74863 
L 779.498182 385.736915 
L 780.947532 378.692136 
L 782.396883 287.062084 
L 783.846234 412.142856 
L 785.295584 371.647357 
L 786.744935 440.753285 
L 788.194286 287.062084 
L 789.643636 364.602577 
L 791.092987 280.017304 
L 792.542338 247.620905 
L 793.991688 258.882967 
L 795.441039 247.620905 
L 796.89039 301.151642 
L 798.33974 258.882967 
L 799.789091 333.452194 
L 801.238442 258.882967 
L 802.687792 364.602577 
L 804.137143 322.285979 
L 805.586494 399.826473 
L 807.035844 244.793409 
L 808.485195 410.273833 
L 809.934545 265.927746 
L 811.383896 397.813679 
L 812.833247 301.151642 
L 814.282597 354.921997 
L 815.731948 287.062084 
L 817.181299 237.74863 
L 818.630649 385.736915 
L 820.08 244.793409 
L 821.529351 265.927746 
L 822.978701 362.062623 
L 824.428052 392.781694 
L 825.877403 357.557798 
L 827.326753 280.017304 
L 828.776104 272.972525 
L 830.225455 319.123017 
L 831.674805 350.465096 
L 833.124156 297.796985 
L 834.573506 333.452194 
L 836.022857 347.733447 
L 837.472208 280.017304 
L 838.921558 272.301594 
L 840.370909 357.557798 
L 841.82026 272.972525 
L 843.26961 364.602577 
L 844.718961 371.647357 
L 846.168312 244.793409 
L 847.617662 254.761532 
L 849.067013 364.602577 
L 850.516364 301.151642 
L 851.965714 364.602577 
L 853.415065 251.838188 
L 854.864416 333.452194 
L 856.313766 364.602577 
L 857.763117 428.00559 
L 859.212468 399.826473 
L 860.661818 251.838188 
L 862.111169 392.781694 
L 863.560519 322.285979 
L 865.00987 308.196421 
L 866.459221 251.838188 
L 867.908571 329.330758 
L 869.357922 347.733447 
L 870.807273 253.56344 
L 872.256623 388.516488 
L 873.705974 378.692136 
L 875.155325 257.780723 
L 876.604675 279.585991 
L 878.054026 240.480279 
L 879.503377 280.017304 
L 880.952727 294.106863 
L 882.402078 392.781694 
L 883.851429 420.96081 
L 885.300779 364.602577 
L 886.75013 230.655927 
L 888.199481 265.927746 
L 889.648831 428.00559 
L 891.098182 364.602577 
L 892.547532 395.752961 
L 893.996883 226.151102 
L 895.446234 371.647357 
L 896.895584 364.602577 
L 898.344935 244.793409 
L 899.794286 413.916031 
L 901.243636 251.838188 
L 902.692987 442.095148 
L 904.142338 258.882967 
L 905.591688 343.420316 
L 907.041039 251.838188 
L 908.49039 294.106863 
L 909.93974 304.841764 
L 911.389091 322.285979 
L 912.838442 329.330758 
L 914.287792 301.39126 
L 915.737143 343.420316 
L 917.186494 258.882967 
L 918.635844 265.927746 
L 920.085195 308.196421 
L 921.534545 251.838188 
L 922.983896 315.912131 
L 924.433247 301.151642 
L 925.882597 357.557798 
L 927.331948 433.564735 
L 928.781299 350.465096 
L 930.230649 442.095148 
L 931.68 240.480279 
L 933.129351 294.106863 
L 934.578701 343.420316 
L 936.028052 315.2412 
L 937.477403 354.921997 
L 938.926753 237.74863 
L 940.376104 347.733447 
L 941.825455 447.893912 
L 944.724156 244.793409 
L 946.173506 392.781694 
L 947.622857 287.062084 
L 949.072208 357.557798 
L 950.521558 261.902158 
L 951.970909 265.927746 
L 953.42026 329.330758 
L 954.86961 399.826473 
L 956.318961 315.2412 
L 957.768312 322.285979 
L 959.217662 385.736915 
L 960.667013 276.231335 
L 962.116364 357.557798 
L 963.565714 280.017304 
L 965.015065 392.781694 
L 966.464416 428.00559 
L 967.913766 420.96081 
L 969.363117 404.954306 
L 972.261818 294.106863 
L 973.711169 294.106863 
L 975.160519 343.420316 
L 976.60987 244.793409 
L 978.059221 308.196421 
L 979.508571 399.826473 
L 980.957922 319.123017 
L 982.407273 392.781694 
L 983.856623 297.701138 
L 985.305974 419.283482 
L 986.755325 280.017304 
L 988.204675 244.793409 
L 989.654026 364.602577 
L 991.103377 269.090708 
L 992.552727 435.050369 
L 994.002078 237.74863 
L 995.451429 287.062084 
L 996.900779 265.927746 
L 998.35013 357.557798 
L 999.799481 315.2412 
L 1001.248831 315.2412 
L 1002.698182 265.927746 
L 1004.147532 280.017304 
L 1005.596883 392.781694 
L 1007.046234 378.692136 
L 1008.495584 283.371961 
L 1009.944935 357.557798 
L 1011.394286 364.602577 
L 1012.843636 357.557798 
L 1014.292987 261.902158 
L 1015.742338 276.231335 
L 1017.191688 322.285979 
L 1018.641039 362.062623 
L 1020.09039 230.655927 
L 1021.53974 343.420316 
L 1022.989091 433.564735 
L 1024.438442 333.452194 
L 1025.887792 265.927746 
L 1027.337143 366.711219 
L 1028.786494 250.544249 
L 1030.235844 376.343876 
L 1031.685195 350.465096 
L 1033.134545 223.611148 
L 1034.583896 404.954306 
L 1036.033247 251.838188 
L 1037.482597 383.532426 
L 1038.931948 385.736915 
L 1040.381299 258.882967 
L 1041.830649 390.673053 
L 1043.28 287.062084 
L 1044.729351 268.32393 
L 1046.178701 350.465096 
L 1047.628052 369.20325 
L 1049.077403 420.96081 
L 1050.526753 385.736915 
L 1051.976104 243.259851 
L 1053.425455 272.972525 
L 1054.874805 385.736915 
L 1056.324156 392.781694 
L 1057.773506 272.972525 
L 1059.222857 330.433003 
L 1060.672208 272.972525 
L 1062.121558 226.151102 
L 1063.570909 237.74863 
L 1065.02026 265.927746 
L 1066.46961 287.062084 
L 1067.918961 378.692136 
L 1069.368312 322.285979 
L 1070.817662 294.106863 
L 1072.267013 308.196421 
L 1073.716364 272.972525 
L 1075.165714 406.871252 
L 1076.615065 265.927746 
L 1078.064416 301.151642 
L 1079.513766 287.062084 
L 1080.963117 230.655927 
L 1082.412468 406.871252 
L 1083.861818 244.793409 
L 1085.311169 322.285979 
L 1086.760519 294.106863 
L 1088.20987 258.882967 
L 1089.659221 265.927746 
L 1091.108571 343.420316 
L 1092.557922 442.095148 
L 1094.007273 413.916031 
L 1095.456623 378.692136 
L 1096.905974 336.375537 
L 1098.355325 280.017304 
L 1099.804675 329.330758 
L 1101.254026 294.106863 
L 1102.703377 336.375537 
L 1104.152727 272.972525 
L 1105.602078 383.532426 
L 1107.051429 329.330758 
L 1108.500779 364.602577 
L 1109.95013 378.692136 
L 1111.399481 326.311567 
L 1112.848831 364.602577 
L 1114.298182 276.231335 
L 1115.747532 280.017304 
L 1117.196883 272.972525 
L 1118.646234 315.2412 
L 1120.095584 388.516488 
L 1121.544935 276.231335 
L 1122.994286 237.74863 
L 1124.443636 287.062084 
L 1125.892987 287.062084 
L 1127.342338 294.106863 
L 1128.791688 304.841764 
L 1130.241039 287.062084 
L 1131.69039 442.095148 
L 1133.13974 308.196421 
L 1134.589091 340.59282 
L 1136.038442 413.916031 
L 1137.487792 294.106863 
L 1138.937143 272.972525 
L 1140.386494 280.017304 
L 1141.835844 315.912131 
L 1143.285195 243.259851 
L 1144.734545 343.420316 
L 1146.183896 297.701138 
L 1147.633247 350.465096 
L 1149.082597 261.902158 
L 1150.531948 272.972525 
L 1151.981299 167.252915 
L 1153.430649 265.927746 
L 1154.88 385.736915 
L 1156.329351 329.330758 
L 1157.778701 315.2412 
L 1159.228052 323.148605 
L 1160.677403 206.981635 
L 1162.126753 181.342473 
L 1163.576104 344.953874 
L 1165.025455 188.387252 
L 1166.474805 258.882967 
L 1167.924156 323.148605 
L 1169.373506 181.342473 
L 1170.822857 244.793409 
L 1172.272208 181.342473 
L 1173.721558 315.912131 
L 1175.170909 188.387252 
L 1176.62026 319.123017 
L 1178.06961 188.387252 
L 1179.518961 254.761532 
L 1180.968312 176.07087 
L 1182.417662 188.387252 
L 1183.867013 188.387252 
L 1185.316364 209.52159 
L 1186.765714 190.400046 
L 1188.215065 157.716105 
L 1189.664416 160.208136 
L 1191.113766 204.681299 
L 1192.563117 211.869849 
L 1194.012468 211.869849 
L 1195.461818 202.47681 
L 1195.461818 202.47681 
" style="fill:none;stroke:#00ff00;stroke-linecap:square;stroke-opacity:0.6;stroke-width:1.2;"/>
   </g>
   <g id="patch_3">
    <path d="M 172.8 555.5736 
L 172.8 74.9088 
" style="fill:none;stroke:#000000;stroke-linecap:square;stroke-linejoin:miter;stroke-width:0.8;"/>
   </g>
   <g id="patch_4">
    <path d="M 1244.16 555.5736 
L 1244.16 74.9088 
" style="fill:none;stroke:#000000;stroke-linecap:square;stroke-linejoin:miter;stroke-width:0.8;"/>
   </g>
   <g id="patch_5">
    <path d="M 172.8 555.5736 
L 1244.16 555.5736 
" style="fill:none;stroke:#000000;stroke-linecap:square;stroke-linejoin:miter;stroke-width:0.8;"/>
   </g>
   <g id="patch_6">
    <path d="M 172.8 74.9088 
L 1244.16 74.9088 
" style="fill:none;stroke:#000000;stroke-linecap:square;stroke-linejoin:miter;stroke-width:0.8;"/>
   </g>
   <g id="legend_1">
    <g id="patch_7">
     <path d="M 179.8 127.499425 
L 265.9 127.499425 
Q 267.9 127.499425 267.9 125.499425 
L 267.9 81.9088 
Q 267.9 79.9088 265.9 79.9088 
L 179.8 79.9088 
Q 177.8 79.9088 177.8 81.9088 
L 177.8 125.499425 
Q 177.8 127.499425 179.8 127.499425 
z
" style="fill:#ffffff;opacity:0.8;stroke:#cccccc;stroke-linejoin:miter;"/>
    </g>
    <g id="line2d_17">
     <path d="M 181.8 88.007237 
L 201.8 88.007237 
" style="fill:none;stroke:#000000;stroke-linecap:square;"/>
    </g>
    <g id="line2d_18"/>
    <g id="text_14">
     <!-- Original -->
     <defs>
      <path d="M 39.40625 66.21875 
Q 28.65625 66.21875 22.328125 58.203125 
Q 16.015625 50.203125 16.015625 36.375 
Q 16.015625 22.609375 22.328125 14.59375 
Q 28.65625 6.59375 39.40625 6.59375 
Q 50.140625 6.59375 56.421875 14.59375 
Q 62.703125 22.609375 62.703125 36.375 
Q 62.703125 50.203125 56.421875 58.203125 
Q 50.140625 66.21875 39.40625 66.21875 
z
M 39.40625 74.21875 
Q 54.734375 74.21875 63.90625 63.9375 
Q 73.09375 53.65625 73.09375 36.375 
Q 73.09375 19.140625 63.90625 8.859375 
Q 54.734375 -1.421875 39.40625 -1.421875 
Q 24.03125 -1.421875 14.8125 8.828125 
Q 5.609375 19.09375 5.609375 36.375 
Q 5.609375 53.65625 14.8125 63.9375 
Q 24.03125 74.21875 39.40625 74.21875 
z
" id="DejaVuSans-4f"/>
      <path d="M 41.109375 46.296875 
Q 39.59375 47.171875 37.8125 47.578125 
Q 36.03125 48 33.890625 48 
Q 26.265625 48 22.1875 43.046875 
Q 18.109375 38.09375 18.109375 28.8125 
L 18.109375 0 
L 9.078125 0 
L 9.078125 54.6875 
L 18.109375 54.6875 
L 18.109375 46.1875 
Q 20.953125 51.171875 25.484375 53.578125 
Q 30.03125 56 36.53125 56 
Q 37.453125 56 38.578125 55.875 
Q 39.703125 55.765625 41.0625 55.515625 
z
" id="DejaVuSans-72"/>
      <path d="M 9.421875 54.6875 
L 18.40625 54.6875 
L 18.40625 0 
L 9.421875 0 
z
M 9.421875 75.984375 
L 18.40625 75.984375 
L 18.40625 64.59375 
L 9.421875 64.59375 
z
" id="DejaVuSans-69"/>
      <path d="M 45.40625 27.984375 
Q 45.40625 37.75 41.375 43.109375 
Q 37.359375 48.484375 30.078125 48.484375 
Q 22.859375 48.484375 18.828125 43.109375 
Q 14.796875 37.75 14.796875 27.984375 
Q 14.796875 18.265625 18.828125 12.890625 
Q 22.859375 7.515625 30.078125 7.515625 
Q 37.359375 7.515625 41.375 12.890625 
Q 45.40625 18.265625 45.40625 27.984375 
z
M 54.390625 6.78125 
Q 54.390625 -7.171875 48.1875 -13.984375 
Q 42 -20.796875 29.203125 -20.796875 
Q 24.46875 -20.796875 20.265625 -20.09375 
Q 16.0625 -19.390625 12.109375 -17.921875 
L 12.109375 -9.1875 
Q 16.0625 -11.328125 19.921875 -12.34375 
Q 23.78125 -13.375 27.78125 -13.375 
Q 36.625 -13.375 41.015625 -8.765625 
Q 45.40625 -4.15625 45.40625 5.171875 
L 45.40625 9.625 
Q 42.625 4.78125 38.28125 2.390625 
Q 33.9375 0 27.875 0 
Q 17.828125 0 11.671875 7.65625 
Q 5.515625 15.328125 5.515625 27.984375 
Q 5.515625 40.671875 11.671875 48.328125 
Q 17.828125 56 27.875 56 
Q 33.9375 56 38.28125 53.609375 
Q 42.625 51.21875 45.40625 46.390625 
L 45.40625 54.6875 
L 54.390625 54.6875 
z
" id="DejaVuSans-67"/>
      <path d="M 54.890625 33.015625 
L 54.890625 0 
L 45.90625 0 
L 45.90625 32.71875 
Q 45.90625 40.484375 42.875 44.328125 
Q 39.84375 48.1875 33.796875 48.1875 
Q 26.515625 48.1875 22.3125 43.546875 
Q 18.109375 38.921875 18.109375 30.90625 
L 18.109375 0 
L 9.078125 0 
L 9.078125 54.6875 
L 18.109375 54.6875 
L 18.109375 46.1875 
Q 21.34375 51.125 25.703125 53.5625 
Q 30.078125 56 35.796875 56 
Q 45.21875 56 50.046875 50.171875 
Q 54.890625 44.34375 54.890625 33.015625 
z
" id="DejaVuSans-6e"/>
      <path d="M 34.28125 27.484375 
Q 23.390625 27.484375 19.1875 25 
Q 14.984375 22.515625 14.984375 16.5 
Q 14.984375 11.71875 18.140625 8.90625 
Q 21.296875 6.109375 26.703125 6.109375 
Q 34.1875 6.109375 38.703125 11.40625 
Q 43.21875 16.703125 43.21875 25.484375 
L 43.21875 27.484375 
z
M 52.203125 31.203125 
L 52.203125 0 
L 43.21875 0 
L 43.21875 8.296875 
Q 40.140625 3.328125 35.546875 0.953125 
Q 30.953125 -1.421875 24.3125 -1.421875 
Q 15.921875 -1.421875 10.953125 3.296875 
Q 6 8.015625 6 15.921875 
Q 6 25.140625 12.171875 29.828125 
Q 18.359375 34.515625 30.609375 34.515625 
L 43.21875 34.515625 
L 43.21875 35.40625 
Q 43.21875 41.609375 39.140625 45 
Q 35.0625 48.390625 27.6875 48.390625 
Q 23 48.390625 18.546875 47.265625 
Q 14.109375 46.140625 10.015625 43.890625 
L 10.015625 52.203125 
Q 14.9375 54.109375 19.578125 55.046875 
Q 24.21875 56 28.609375 56 
Q 40.484375 56 46.34375 49.84375 
Q 52.203125 43.703125 52.203125 31.203125 
z
" id="DejaVuSans-61"/>
      <path d="M 9.421875 75.984375 
L 18.40625 75.984375 
L 18.40625 0 
L 9.421875 0 
z
" id="DejaVuSans-6c"/>
     </defs>
     <g transform="translate(209.8 91.507237)scale(0.1 -0.1)">
      <use xlink:href="#DejaVuSans-4f"/>
      <use x="78.710938" xlink:href="#DejaVuSans-72"/>
      <use x="119.824219" xlink:href="#DejaVuSans-69"/>
      <use x="147.607422" xlink:href="#DejaVuSans-67"/>
      <use x="211.083984" xlink:href="#DejaVuSans-69"/>
      <use x="238.867188" xlink:href="#DejaVuSans-6e"/>
      <use x="302.246094" xlink:href="#DejaVuSans-61"/>
      <use x="363.525391" xlink:href="#DejaVuSans-6c"/>
     </g>
    </g>
    <g id="line2d_19">
     <path d="M 181.8 102.685362 
L 201.8 102.685362 
" style="fill:none;stroke:#ff0000;stroke-linecap:square;stroke-width:0.5;"/>
    </g>
    <g id="line2d_20"/>
    <g id="text_15">
     <!-- Random_Y -->
     <defs>
      <path d="M 44.390625 34.1875 
Q 47.5625 33.109375 50.5625 29.59375 
Q 53.5625 26.078125 56.59375 19.921875 
L 66.609375 0 
L 56 0 
L 46.6875 18.703125 
Q 43.0625 26.03125 39.671875 28.421875 
Q 36.28125 30.8125 30.421875 30.8125 
L 19.671875 30.8125 
L 19.671875 0 
L 9.8125 0 
L 9.8125 72.90625 
L 32.078125 72.90625 
Q 44.578125 72.90625 50.734375 67.671875 
Q 56.890625 62.453125 56.890625 51.90625 
Q 56.890625 45.015625 53.6875 40.46875 
Q 50.484375 35.9375 44.390625 34.1875 
z
M 19.671875 64.796875 
L 19.671875 38.921875 
L 32.078125 38.921875 
Q 39.203125 38.921875 42.84375 42.21875 
Q 46.484375 45.515625 46.484375 51.90625 
Q 46.484375 58.296875 42.84375 61.546875 
Q 39.203125 64.796875 32.078125 64.796875 
z
" id="DejaVuSans-52"/>
      <path d="M 45.40625 46.390625 
L 45.40625 75.984375 
L 54.390625 75.984375 
L 54.390625 0 
L 45.40625 0 
L 45.40625 8.203125 
Q 42.578125 3.328125 38.25 0.953125 
Q 33.9375 -1.421875 27.875 -1.421875 
Q 17.96875 -1.421875 11.734375 6.484375 
Q 5.515625 14.40625 5.515625 27.296875 
Q 5.515625 40.1875 11.734375 48.09375 
Q 17.96875 56 27.875 56 
Q 33.9375 56 38.25 53.625 
Q 42.578125 51.265625 45.40625 46.390625 
z
M 14.796875 27.296875 
Q 14.796875 17.390625 18.875 11.75 
Q 22.953125 6.109375 30.078125 6.109375 
Q 37.203125 6.109375 41.296875 11.75 
Q 45.40625 17.390625 45.40625 27.296875 
Q 45.40625 37.203125 41.296875 42.84375 
Q 37.203125 48.484375 30.078125 48.484375 
Q 22.953125 48.484375 18.875 42.84375 
Q 14.796875 37.203125 14.796875 27.296875 
z
" id="DejaVuSans-64"/>
      <path d="M 30.609375 48.390625 
Q 23.390625 48.390625 19.1875 42.75 
Q 14.984375 37.109375 14.984375 27.296875 
Q 14.984375 17.484375 19.15625 11.84375 
Q 23.34375 6.203125 30.609375 6.203125 
Q 37.796875 6.203125 41.984375 11.859375 
Q 46.1875 17.53125 46.1875 27.296875 
Q 46.1875 37.015625 41.984375 42.703125 
Q 37.796875 48.390625 30.609375 48.390625 
z
M 30.609375 56 
Q 42.328125 56 49.015625 48.375 
Q 55.71875 40.765625 55.71875 27.296875 
Q 55.71875 13.875 49.015625 6.21875 
Q 42.328125 -1.421875 30.609375 -1.421875 
Q 18.84375 -1.421875 12.171875 6.21875 
Q 5.515625 13.875 5.515625 27.296875 
Q 5.515625 40.765625 12.171875 48.375 
Q 18.84375 56 30.609375 56 
z
" id="DejaVuSans-6f"/>
      <path d="M 52 44.1875 
Q 55.375 50.25 60.0625 53.125 
Q 64.75 56 71.09375 56 
Q 79.640625 56 84.28125 50.015625 
Q 88.921875 44.046875 88.921875 33.015625 
L 88.921875 0 
L 79.890625 0 
L 79.890625 32.71875 
Q 79.890625 40.578125 77.09375 44.375 
Q 74.3125 48.1875 68.609375 48.1875 
Q 61.625 48.1875 57.5625 43.546875 
Q 53.515625 38.921875 53.515625 30.90625 
L 53.515625 0 
L 44.484375 0 
L 44.484375 32.71875 
Q 44.484375 40.625 41.703125 44.40625 
Q 38.921875 48.1875 33.109375 48.1875 
Q 26.21875 48.1875 22.15625 43.53125 
Q 18.109375 38.875 18.109375 30.90625 
L 18.109375 0 
L 9.078125 0 
L 9.078125 54.6875 
L 18.109375 54.6875 
L 18.109375 46.1875 
Q 21.1875 51.21875 25.484375 53.609375 
Q 29.78125 56 35.6875 56 
Q 41.65625 56 45.828125 52.96875 
Q 50 49.953125 52 44.1875 
z
" id="DejaVuSans-6d"/>
      <path d="M 50.984375 -16.609375 
L 50.984375 -23.578125 
L -0.984375 -23.578125 
L -0.984375 -16.609375 
z
" id="DejaVuSans-5f"/>
      <path d="M -0.203125 72.90625 
L 10.40625 72.90625 
L 30.609375 42.921875 
L 50.6875 72.90625 
L 61.28125 72.90625 
L 35.5 34.71875 
L 35.5 0 
L 25.59375 0 
L 25.59375 34.71875 
z
" id="DejaVuSans-59"/>
     </defs>
     <g transform="translate(209.8 106.185362)scale(0.1 -0.1)">
      <use xlink:href="#DejaVuSans-52"/>
      <use x="69.451172" xlink:href="#DejaVuSans-61"/>
      <use x="130.730469" xlink:href="#DejaVuSans-6e"/>
      <use x="194.109375" xlink:href="#DejaVuSans-64"/>
      <use x="257.585938" xlink:href="#DejaVuSans-6f"/>
      <use x="318.767578" xlink:href="#DejaVuSans-6d"/>
      <use x="416.179688" xlink:href="#DejaVuSans-5f"/>
      <use x="466.179688" xlink:href="#DejaVuSans-59"/>
     </g>
    </g>
    <g id="line2d_21">
     <path d="M 181.8 117.641612 
L 201.8 117.641612 
" style="fill:none;stroke:#00ff00;stroke-linecap:square;stroke-opacity:0.6;stroke-width:1.2;"/>
    </g>
    <g id="line2d_22"/>
    <g id="text_16">
     <!-- Random_N -->
     <defs>
      <path d="M 9.8125 72.90625 
L 23.09375 72.90625 
L 55.421875 11.921875 
L 55.421875 72.90625 
L 64.984375 72.90625 
L 64.984375 0 
L 51.703125 0 
L 19.390625 60.984375 
L 19.390625 0 
L 9.8125 0 
z
" id="DejaVuSans-4e"/>
     </defs>
     <g transform="translate(209.8 121.141612)scale(0.1 -0.1)">
      <use xlink:href="#DejaVuSans-52"/>
      <use x="69.451172" xlink:href="#DejaVuSans-61"/>
      <use x="130.730469" xlink:href="#DejaVuSans-6e"/>
      <use x="194.109375" xlink:href="#DejaVuSans-64"/>
      <use x="257.585938" xlink:href="#DejaVuSans-6f"/>
      <use x="318.767578" xlink:href="#DejaVuSans-6d"/>
      <use x="416.179688" xlink:href="#DejaVuSans-5f"/>
      <use x="466.179688" xlink:href="#DejaVuSans-4e"/>
     </g>
    </g>
   </g>
  </g>
 </g>
 <defs>
  <clipPath id="pd205a58691">
   <rect height="480.6648" width="1071.36" x="172.8" y="74.9088"/>
  </clipPath>
 </defs>
</svg>
