<?xml version="1.0" encoding="utf-8" standalone="no"?>
<!DOCTYPE svg PUBLIC "-//W3C//DTD SVG 1.1//EN"
  "http://www.w3.org/Graphics/SVG/1.1/DTD/svg11.dtd">
<!-- Created with matplotlib (http://matplotlib.org/) -->
<svg height="624.24pt" version="1.1" viewBox="0 0 1382.4 624.24" width="1382.4pt" xmlns="http://www.w3.org/2000/svg" xmlns:xlink="http://www.w3.org/1999/xlink">
 <defs>
  <style type="text/css">
*{stroke-linecap:butt;stroke-linejoin:round;}
  </style>
 </defs>
 <g id="figure_1">
  <g id="patch_1">
   <path d="M 0 624.24 
L 1382.4 624.24 
L 1382.4 0 
L 0 0 
z
" style="fill:#ffffff;"/>
  </g>
  <g id="axes_1">
   <g id="patch_2">
    <path d="M 172.8 555.5736 
L 1244.16 555.5736 
L 1244.16 74.9088 
L 172.8 74.9088 
z
" style="fill:#ffffff;"/>
   </g>
   <g id="matplotlib.axis_1">
    <g id="xtick_1">
     <g id="line2d_1">
      <defs>
       <path d="M 0 0 
L 0 3.5 
" id="m7fcf4a593f" style="stroke:#000000;stroke-width:0.8;"/>
      </defs>
      <g>
       <use style="stroke:#000000;stroke-width:0.8;" x="172.8" xlink:href="#m7fcf4a593f" y="555.5736"/>
      </g>
     </g>
     <g id="text_1">
      <!-- 0 -->
      <defs>
       <path d="M 31.78125 66.40625 
Q 24.171875 66.40625 20.328125 58.90625 
Q 16.5 51.421875 16.5 36.375 
Q 16.5 21.390625 20.328125 13.890625 
Q 24.171875 6.390625 31.78125 6.390625 
Q 39.453125 6.390625 43.28125 13.890625 
Q 47.125 21.390625 47.125 36.375 
Q 47.125 51.421875 43.28125 58.90625 
Q 39.453125 66.40625 31.78125 66.40625 
z
M 31.78125 74.21875 
Q 44.046875 74.21875 50.515625 64.515625 
Q 56.984375 54.828125 56.984375 36.375 
Q 56.984375 17.96875 50.515625 8.265625 
Q 44.046875 -1.421875 31.78125 -1.421875 
Q 19.53125 -1.421875 13.0625 8.265625 
Q 6.59375 17.96875 6.59375 36.375 
Q 6.59375 54.828125 13.0625 64.515625 
Q 19.53125 74.21875 31.78125 74.21875 
z
" id="DejaVuSans-30"/>
      </defs>
      <g transform="translate(169.61875 570.172037)scale(0.1 -0.1)">
       <use xlink:href="#DejaVuSans-30"/>
      </g>
     </g>
    </g>
    <g id="xtick_2">
     <g id="line2d_2">
      <g>
       <use style="stroke:#000000;stroke-width:0.8;" x="387.072" xlink:href="#m7fcf4a593f" y="555.5736"/>
      </g>
     </g>
     <g id="text_2">
      <!-- 20 -->
      <defs>
       <path d="M 19.1875 8.296875 
L 53.609375 8.296875 
L 53.609375 0 
L 7.328125 0 
L 7.328125 8.296875 
Q 12.9375 14.109375 22.625 23.890625 
Q 32.328125 33.6875 34.8125 36.53125 
Q 39.546875 41.84375 41.421875 45.53125 
Q 43.3125 49.21875 43.3125 52.78125 
Q 43.3125 58.59375 39.234375 62.25 
Q 35.15625 65.921875 28.609375 65.921875 
Q 23.96875 65.921875 18.8125 64.3125 
Q 13.671875 62.703125 7.8125 59.421875 
L 7.8125 69.390625 
Q 13.765625 71.78125 18.9375 73 
Q 24.125 74.21875 28.421875 74.21875 
Q 39.75 74.21875 46.484375 68.546875 
Q 53.21875 62.890625 53.21875 53.421875 
Q 53.21875 48.921875 51.53125 44.890625 
Q 49.859375 40.875 45.40625 35.40625 
Q 44.1875 33.984375 37.640625 27.21875 
Q 31.109375 20.453125 19.1875 8.296875 
z
" id="DejaVuSans-32"/>
      </defs>
      <g transform="translate(380.7095 570.172037)scale(0.1 -0.1)">
       <use xlink:href="#DejaVuSans-32"/>
       <use x="63.623047" xlink:href="#DejaVuSans-30"/>
      </g>
     </g>
    </g>
    <g id="xtick_3">
     <g id="line2d_3">
      <g>
       <use style="stroke:#000000;stroke-width:0.8;" x="601.344" xlink:href="#m7fcf4a593f" y="555.5736"/>
      </g>
     </g>
     <g id="text_3">
      <!-- 40 -->
      <defs>
       <path d="M 37.796875 64.3125 
L 12.890625 25.390625 
L 37.796875 25.390625 
z
M 35.203125 72.90625 
L 47.609375 72.90625 
L 47.609375 25.390625 
L 58.015625 25.390625 
L 58.015625 17.1875 
L 47.609375 17.1875 
L 47.609375 0 
L 37.796875 0 
L 37.796875 17.1875 
L 4.890625 17.1875 
L 4.890625 26.703125 
z
" id="DejaVuSans-34"/>
      </defs>
      <g transform="translate(594.9815 570.172037)scale(0.1 -0.1)">
       <use xlink:href="#DejaVuSans-34"/>
       <use x="63.623047" xlink:href="#DejaVuSans-30"/>
      </g>
     </g>
    </g>
    <g id="xtick_4">
     <g id="line2d_4">
      <g>
       <use style="stroke:#000000;stroke-width:0.8;" x="815.616" xlink:href="#m7fcf4a593f" y="555.5736"/>
      </g>
     </g>
     <g id="text_4">
      <!-- 60 -->
      <defs>
       <path d="M 33.015625 40.375 
Q 26.375 40.375 22.484375 35.828125 
Q 18.609375 31.296875 18.609375 23.390625 
Q 18.609375 15.53125 22.484375 10.953125 
Q 26.375 6.390625 33.015625 6.390625 
Q 39.65625 6.390625 43.53125 10.953125 
Q 47.40625 15.53125 47.40625 23.390625 
Q 47.40625 31.296875 43.53125 35.828125 
Q 39.65625 40.375 33.015625 40.375 
z
M 52.59375 71.296875 
L 52.59375 62.3125 
Q 48.875 64.0625 45.09375 64.984375 
Q 41.3125 65.921875 37.59375 65.921875 
Q 27.828125 65.921875 22.671875 59.328125 
Q 17.53125 52.734375 16.796875 39.40625 
Q 19.671875 43.65625 24.015625 45.921875 
Q 28.375 48.1875 33.59375 48.1875 
Q 44.578125 48.1875 50.953125 41.515625 
Q 57.328125 34.859375 57.328125 23.390625 
Q 57.328125 12.15625 50.6875 5.359375 
Q 44.046875 -1.421875 33.015625 -1.421875 
Q 20.359375 -1.421875 13.671875 8.265625 
Q 6.984375 17.96875 6.984375 36.375 
Q 6.984375 53.65625 15.1875 63.9375 
Q 23.390625 74.21875 37.203125 74.21875 
Q 40.921875 74.21875 44.703125 73.484375 
Q 48.484375 72.75 52.59375 71.296875 
z
" id="DejaVuSans-36"/>
      </defs>
      <g transform="translate(809.2535 570.172037)scale(0.1 -0.1)">
       <use xlink:href="#DejaVuSans-36"/>
       <use x="63.623047" xlink:href="#DejaVuSans-30"/>
      </g>
     </g>
    </g>
    <g id="xtick_5">
     <g id="line2d_5">
      <g>
       <use style="stroke:#000000;stroke-width:0.8;" x="1029.888" xlink:href="#m7fcf4a593f" y="555.5736"/>
      </g>
     </g>
     <g id="text_5">
      <!-- 80 -->
      <defs>
       <path d="M 31.78125 34.625 
Q 24.75 34.625 20.71875 30.859375 
Q 16.703125 27.09375 16.703125 20.515625 
Q 16.703125 13.921875 20.71875 10.15625 
Q 24.75 6.390625 31.78125 6.390625 
Q 38.8125 6.390625 42.859375 10.171875 
Q 46.921875 13.96875 46.921875 20.515625 
Q 46.921875 27.09375 42.890625 30.859375 
Q 38.875 34.625 31.78125 34.625 
z
M 21.921875 38.8125 
Q 15.578125 40.375 12.03125 44.71875 
Q 8.5 49.078125 8.5 55.328125 
Q 8.5 64.0625 14.71875 69.140625 
Q 20.953125 74.21875 31.78125 74.21875 
Q 42.671875 74.21875 48.875 69.140625 
Q 55.078125 64.0625 55.078125 55.328125 
Q 55.078125 49.078125 51.53125 44.71875 
Q 48 40.375 41.703125 38.8125 
Q 48.828125 37.15625 52.796875 32.3125 
Q 56.78125 27.484375 56.78125 20.515625 
Q 56.78125 9.90625 50.3125 4.234375 
Q 43.84375 -1.421875 31.78125 -1.421875 
Q 19.734375 -1.421875 13.25 4.234375 
Q 6.78125 9.90625 6.78125 20.515625 
Q 6.78125 27.484375 10.78125 32.3125 
Q 14.796875 37.15625 21.921875 38.8125 
z
M 18.3125 54.390625 
Q 18.3125 48.734375 21.84375 45.5625 
Q 25.390625 42.390625 31.78125 42.390625 
Q 38.140625 42.390625 41.71875 45.5625 
Q 45.3125 48.734375 45.3125 54.390625 
Q 45.3125 60.0625 41.71875 63.234375 
Q 38.140625 66.40625 31.78125 66.40625 
Q 25.390625 66.40625 21.84375 63.234375 
Q 18.3125 60.0625 18.3125 54.390625 
z
" id="DejaVuSans-38"/>
      </defs>
      <g transform="translate(1023.5255 570.172037)scale(0.1 -0.1)">
       <use xlink:href="#DejaVuSans-38"/>
       <use x="63.623047" xlink:href="#DejaVuSans-30"/>
      </g>
     </g>
    </g>
    <g id="xtick_6">
     <g id="line2d_6">
      <g>
       <use style="stroke:#000000;stroke-width:0.8;" x="1244.16" xlink:href="#m7fcf4a593f" y="555.5736"/>
      </g>
     </g>
     <g id="text_6">
      <!-- 100 -->
      <defs>
       <path d="M 12.40625 8.296875 
L 28.515625 8.296875 
L 28.515625 63.921875 
L 10.984375 60.40625 
L 10.984375 69.390625 
L 28.421875 72.90625 
L 38.28125 72.90625 
L 38.28125 8.296875 
L 54.390625 8.296875 
L 54.390625 0 
L 12.40625 0 
z
" id="DejaVuSans-31"/>
      </defs>
      <g transform="translate(1234.61625 570.172037)scale(0.1 -0.1)">
       <use xlink:href="#DejaVuSans-31"/>
       <use x="63.623047" xlink:href="#DejaVuSans-30"/>
       <use x="127.246094" xlink:href="#DejaVuSans-30"/>
      </g>
     </g>
    </g>
    <g id="text_7">
     <!-- Índice de detección (%) -->
     <defs>
      <path d="M 9.8125 72.90625 
L 19.671875 72.90625 
L 19.671875 0 
L 9.8125 0 
z
M 17.4375 92.515625 
L 26.46875 92.515625 
L 15.34375 79.625 
L 7.859375 79.625 
z
" id="DejaVuSans-cd"/>
      <path d="M 54.890625 33.015625 
L 54.890625 0 
L 45.90625 0 
L 45.90625 32.71875 
Q 45.90625 40.484375 42.875 44.328125 
Q 39.84375 48.1875 33.796875 48.1875 
Q 26.515625 48.1875 22.3125 43.546875 
Q 18.109375 38.921875 18.109375 30.90625 
L 18.109375 0 
L 9.078125 0 
L 9.078125 54.6875 
L 18.109375 54.6875 
L 18.109375 46.1875 
Q 21.34375 51.125 25.703125 53.5625 
Q 30.078125 56 35.796875 56 
Q 45.21875 56 50.046875 50.171875 
Q 54.890625 44.34375 54.890625 33.015625 
z
" id="DejaVuSans-6e"/>
      <path d="M 45.40625 46.390625 
L 45.40625 75.984375 
L 54.390625 75.984375 
L 54.390625 0 
L 45.40625 0 
L 45.40625 8.203125 
Q 42.578125 3.328125 38.25 0.953125 
Q 33.9375 -1.421875 27.875 -1.421875 
Q 17.96875 -1.421875 11.734375 6.484375 
Q 5.515625 14.40625 5.515625 27.296875 
Q 5.515625 40.1875 11.734375 48.09375 
Q 17.96875 56 27.875 56 
Q 33.9375 56 38.25 53.625 
Q 42.578125 51.265625 45.40625 46.390625 
z
M 14.796875 27.296875 
Q 14.796875 17.390625 18.875 11.75 
Q 22.953125 6.109375 30.078125 6.109375 
Q 37.203125 6.109375 41.296875 11.75 
Q 45.40625 17.390625 45.40625 27.296875 
Q 45.40625 37.203125 41.296875 42.84375 
Q 37.203125 48.484375 30.078125 48.484375 
Q 22.953125 48.484375 18.875 42.84375 
Q 14.796875 37.203125 14.796875 27.296875 
z
" id="DejaVuSans-64"/>
      <path d="M 9.421875 54.6875 
L 18.40625 54.6875 
L 18.40625 0 
L 9.421875 0 
z
M 9.421875 75.984375 
L 18.40625 75.984375 
L 18.40625 64.59375 
L 9.421875 64.59375 
z
" id="DejaVuSans-69"/>
      <path d="M 48.78125 52.59375 
L 48.78125 44.1875 
Q 44.96875 46.296875 41.140625 47.34375 
Q 37.3125 48.390625 33.40625 48.390625 
Q 24.65625 48.390625 19.8125 42.84375 
Q 14.984375 37.3125 14.984375 27.296875 
Q 14.984375 17.28125 19.8125 11.734375 
Q 24.65625 6.203125 33.40625 6.203125 
Q 37.3125 6.203125 41.140625 7.25 
Q 44.96875 8.296875 48.78125 10.40625 
L 48.78125 2.09375 
Q 45.015625 0.34375 40.984375 -0.53125 
Q 36.96875 -1.421875 32.421875 -1.421875 
Q 20.0625 -1.421875 12.78125 6.34375 
Q 5.515625 14.109375 5.515625 27.296875 
Q 5.515625 40.671875 12.859375 48.328125 
Q 20.21875 56 33.015625 56 
Q 37.15625 56 41.109375 55.140625 
Q 45.0625 54.296875 48.78125 52.59375 
z
" id="DejaVuSans-63"/>
      <path d="M 56.203125 29.59375 
L 56.203125 25.203125 
L 14.890625 25.203125 
Q 15.484375 15.921875 20.484375 11.0625 
Q 25.484375 6.203125 34.421875 6.203125 
Q 39.59375 6.203125 44.453125 7.46875 
Q 49.3125 8.734375 54.109375 11.28125 
L 54.109375 2.78125 
Q 49.265625 0.734375 44.1875 -0.34375 
Q 39.109375 -1.421875 33.890625 -1.421875 
Q 20.796875 -1.421875 13.15625 6.1875 
Q 5.515625 13.8125 5.515625 26.8125 
Q 5.515625 40.234375 12.765625 48.109375 
Q 20.015625 56 32.328125 56 
Q 43.359375 56 49.78125 48.890625 
Q 56.203125 41.796875 56.203125 29.59375 
z
M 47.21875 32.234375 
Q 47.125 39.59375 43.09375 43.984375 
Q 39.0625 48.390625 32.421875 48.390625 
Q 24.90625 48.390625 20.390625 44.140625 
Q 15.875 39.890625 15.1875 32.171875 
z
" id="DejaVuSans-65"/>
      <path id="DejaVuSans-20"/>
      <path d="M 18.3125 70.21875 
L 18.3125 54.6875 
L 36.8125 54.6875 
L 36.8125 47.703125 
L 18.3125 47.703125 
L 18.3125 18.015625 
Q 18.3125 11.328125 20.140625 9.421875 
Q 21.96875 7.515625 27.59375 7.515625 
L 36.8125 7.515625 
L 36.8125 0 
L 27.59375 0 
Q 17.1875 0 13.234375 3.875 
Q 9.28125 7.765625 9.28125 18.015625 
L 9.28125 47.703125 
L 2.6875 47.703125 
L 2.6875 54.6875 
L 9.28125 54.6875 
L 9.28125 70.21875 
z
" id="DejaVuSans-74"/>
      <path d="M 30.609375 48.390625 
Q 23.390625 48.390625 19.1875 42.75 
Q 14.984375 37.109375 14.984375 27.296875 
Q 14.984375 17.484375 19.15625 11.84375 
Q 23.34375 6.203125 30.609375 6.203125 
Q 37.796875 6.203125 41.984375 11.859375 
Q 46.1875 17.53125 46.1875 27.296875 
Q 46.1875 37.015625 41.984375 42.703125 
Q 37.796875 48.390625 30.609375 48.390625 
z
M 30.609375 56 
Q 42.328125 56 49.015625 48.375 
Q 55.71875 40.765625 55.71875 27.296875 
Q 55.71875 13.875 49.015625 6.21875 
Q 42.328125 -1.421875 30.609375 -1.421875 
Q 18.84375 -1.421875 12.171875 6.21875 
Q 5.515625 13.875 5.515625 27.296875 
Q 5.515625 40.765625 12.171875 48.375 
Q 18.84375 56 30.609375 56 
z
M 37.40625 79.984375 
L 47.125 79.984375 
L 31.21875 61.625 
L 23.734375 61.625 
z
" id="DejaVuSans-f3"/>
      <path d="M 31 75.875 
Q 24.46875 64.65625 21.28125 53.65625 
Q 18.109375 42.671875 18.109375 31.390625 
Q 18.109375 20.125 21.3125 9.0625 
Q 24.515625 -2 31 -13.1875 
L 23.1875 -13.1875 
Q 15.875 -1.703125 12.234375 9.375 
Q 8.59375 20.453125 8.59375 31.390625 
Q 8.59375 42.28125 12.203125 53.3125 
Q 15.828125 64.359375 23.1875 75.875 
z
" id="DejaVuSans-28"/>
      <path d="M 72.703125 32.078125 
Q 68.453125 32.078125 66.03125 28.46875 
Q 63.625 24.859375 63.625 18.40625 
Q 63.625 12.0625 66.03125 8.421875 
Q 68.453125 4.78125 72.703125 4.78125 
Q 76.859375 4.78125 79.265625 8.421875 
Q 81.6875 12.0625 81.6875 18.40625 
Q 81.6875 24.8125 79.265625 28.4375 
Q 76.859375 32.078125 72.703125 32.078125 
z
M 72.703125 38.28125 
Q 80.421875 38.28125 84.953125 32.90625 
Q 89.5 27.546875 89.5 18.40625 
Q 89.5 9.28125 84.9375 3.921875 
Q 80.375 -1.421875 72.703125 -1.421875 
Q 64.890625 -1.421875 60.34375 3.921875 
Q 55.8125 9.28125 55.8125 18.40625 
Q 55.8125 27.59375 60.375 32.9375 
Q 64.9375 38.28125 72.703125 38.28125 
z
M 22.3125 68.015625 
Q 18.109375 68.015625 15.6875 64.375 
Q 13.28125 60.75 13.28125 54.390625 
Q 13.28125 47.953125 15.671875 44.328125 
Q 18.0625 40.71875 22.3125 40.71875 
Q 26.5625 40.71875 28.96875 44.328125 
Q 31.390625 47.953125 31.390625 54.390625 
Q 31.390625 60.6875 28.953125 64.34375 
Q 26.515625 68.015625 22.3125 68.015625 
z
M 66.40625 74.21875 
L 74.21875 74.21875 
L 28.609375 -1.421875 
L 20.796875 -1.421875 
z
M 22.3125 74.21875 
Q 30.03125 74.21875 34.609375 68.875 
Q 39.203125 63.53125 39.203125 54.390625 
Q 39.203125 45.171875 34.640625 39.84375 
Q 30.078125 34.515625 22.3125 34.515625 
Q 14.546875 34.515625 10.03125 39.859375 
Q 5.515625 45.21875 5.515625 54.390625 
Q 5.515625 63.484375 10.046875 68.84375 
Q 14.59375 74.21875 22.3125 74.21875 
z
" id="DejaVuSans-25"/>
      <path d="M 8.015625 75.875 
L 15.828125 75.875 
Q 23.140625 64.359375 26.78125 53.3125 
Q 30.421875 42.28125 30.421875 31.390625 
Q 30.421875 20.453125 26.78125 9.375 
Q 23.140625 -1.703125 15.828125 -13.1875 
L 8.015625 -13.1875 
Q 14.5 -2 17.703125 9.0625 
Q 20.90625 20.125 20.90625 31.390625 
Q 20.90625 42.671875 17.703125 53.65625 
Q 14.5 64.65625 8.015625 75.875 
z
" id="DejaVuSans-29"/>
     </defs>
     <g transform="translate(649.37375 584.74235)scale(0.1 -0.1)">
      <use xlink:href="#DejaVuSans-cd"/>
      <use x="29.492188" xlink:href="#DejaVuSans-6e"/>
      <use x="92.871094" xlink:href="#DejaVuSans-64"/>
      <use x="156.347656" xlink:href="#DejaVuSans-69"/>
      <use x="184.130859" xlink:href="#DejaVuSans-63"/>
      <use x="239.111328" xlink:href="#DejaVuSans-65"/>
      <use x="300.634766" xlink:href="#DejaVuSans-20"/>
      <use x="332.421875" xlink:href="#DejaVuSans-64"/>
      <use x="395.898438" xlink:href="#DejaVuSans-65"/>
      <use x="457.421875" xlink:href="#DejaVuSans-20"/>
      <use x="489.208984" xlink:href="#DejaVuSans-64"/>
      <use x="552.685547" xlink:href="#DejaVuSans-65"/>
      <use x="614.208984" xlink:href="#DejaVuSans-74"/>
      <use x="653.417969" xlink:href="#DejaVuSans-65"/>
      <use x="714.941406" xlink:href="#DejaVuSans-63"/>
      <use x="769.921875" xlink:href="#DejaVuSans-63"/>
      <use x="824.902344" xlink:href="#DejaVuSans-69"/>
      <use x="852.685547" xlink:href="#DejaVuSans-f3"/>
      <use x="913.867188" xlink:href="#DejaVuSans-6e"/>
      <use x="977.246094" xlink:href="#DejaVuSans-20"/>
      <use x="1009.033203" xlink:href="#DejaVuSans-28"/>
      <use x="1048.046875" xlink:href="#DejaVuSans-25"/>
      <use x="1143.066406" xlink:href="#DejaVuSans-29"/>
     </g>
    </g>
   </g>
   <g id="matplotlib.axis_2">
    <g id="ytick_1">
     <g id="line2d_7">
      <defs>
       <path d="M 0 0 
L -3.5 0 
" id="mcfd1afa938" style="stroke:#000000;stroke-width:0.8;"/>
      </defs>
      <g>
       <use style="stroke:#000000;stroke-width:0.8;" x="172.8" xlink:href="#mcfd1afa938" y="555.5736"/>
      </g>
     </g>
     <g id="text_8">
      <!-- 0 -->
      <g transform="translate(159.4375 559.372819)scale(0.1 -0.1)">
       <use xlink:href="#DejaVuSans-30"/>
      </g>
     </g>
    </g>
    <g id="ytick_2">
     <g id="line2d_8">
      <g>
       <use style="stroke:#000000;stroke-width:0.8;" x="172.8" xlink:href="#mcfd1afa938" y="523.741494"/>
      </g>
     </g>
     <g id="text_9">
      <!-- 100 -->
      <g transform="translate(146.7125 527.540713)scale(0.1 -0.1)">
       <use xlink:href="#DejaVuSans-31"/>
       <use x="63.623047" xlink:href="#DejaVuSans-30"/>
       <use x="127.246094" xlink:href="#DejaVuSans-30"/>
      </g>
     </g>
    </g>
    <g id="ytick_3">
     <g id="line2d_9">
      <g>
       <use style="stroke:#000000;stroke-width:0.8;" x="172.8" xlink:href="#mcfd1afa938" y="491.909388"/>
      </g>
     </g>
     <g id="text_10">
      <!-- 200 -->
      <g transform="translate(146.7125 495.708607)scale(0.1 -0.1)">
       <use xlink:href="#DejaVuSans-32"/>
       <use x="63.623047" xlink:href="#DejaVuSans-30"/>
       <use x="127.246094" xlink:href="#DejaVuSans-30"/>
      </g>
     </g>
    </g>
    <g id="ytick_4">
     <g id="line2d_10">
      <g>
       <use style="stroke:#000000;stroke-width:0.8;" x="172.8" xlink:href="#mcfd1afa938" y="460.077282"/>
      </g>
     </g>
     <g id="text_11">
      <!-- 300 -->
      <defs>
       <path d="M 40.578125 39.3125 
Q 47.65625 37.796875 51.625 33 
Q 55.609375 28.21875 55.609375 21.1875 
Q 55.609375 10.40625 48.1875 4.484375 
Q 40.765625 -1.421875 27.09375 -1.421875 
Q 22.515625 -1.421875 17.65625 -0.515625 
Q 12.796875 0.390625 7.625 2.203125 
L 7.625 11.71875 
Q 11.71875 9.328125 16.59375 8.109375 
Q 21.484375 6.890625 26.8125 6.890625 
Q 36.078125 6.890625 40.9375 10.546875 
Q 45.796875 14.203125 45.796875 21.1875 
Q 45.796875 27.640625 41.28125 31.265625 
Q 36.765625 34.90625 28.71875 34.90625 
L 20.21875 34.90625 
L 20.21875 43.015625 
L 29.109375 43.015625 
Q 36.375 43.015625 40.234375 45.921875 
Q 44.09375 48.828125 44.09375 54.296875 
Q 44.09375 59.90625 40.109375 62.90625 
Q 36.140625 65.921875 28.71875 65.921875 
Q 24.65625 65.921875 20.015625 65.03125 
Q 15.375 64.15625 9.8125 62.3125 
L 9.8125 71.09375 
Q 15.4375 72.65625 20.34375 73.4375 
Q 25.25 74.21875 29.59375 74.21875 
Q 40.828125 74.21875 47.359375 69.109375 
Q 53.90625 64.015625 53.90625 55.328125 
Q 53.90625 49.265625 50.4375 45.09375 
Q 46.96875 40.921875 40.578125 39.3125 
z
" id="DejaVuSans-33"/>
      </defs>
      <g transform="translate(146.7125 463.876501)scale(0.1 -0.1)">
       <use xlink:href="#DejaVuSans-33"/>
       <use x="63.623047" xlink:href="#DejaVuSans-30"/>
       <use x="127.246094" xlink:href="#DejaVuSans-30"/>
      </g>
     </g>
    </g>
    <g id="ytick_5">
     <g id="line2d_11">
      <g>
       <use style="stroke:#000000;stroke-width:0.8;" x="172.8" xlink:href="#mcfd1afa938" y="428.245176"/>
      </g>
     </g>
     <g id="text_12">
      <!-- 400 -->
      <g transform="translate(146.7125 432.044395)scale(0.1 -0.1)">
       <use xlink:href="#DejaVuSans-34"/>
       <use x="63.623047" xlink:href="#DejaVuSans-30"/>
       <use x="127.246094" xlink:href="#DejaVuSans-30"/>
      </g>
     </g>
    </g>
    <g id="ytick_6">
     <g id="line2d_12">
      <g>
       <use style="stroke:#000000;stroke-width:0.8;" x="172.8" xlink:href="#mcfd1afa938" y="396.41307"/>
      </g>
     </g>
     <g id="text_13">
      <!-- 500 -->
      <defs>
       <path d="M 10.796875 72.90625 
L 49.515625 72.90625 
L 49.515625 64.59375 
L 19.828125 64.59375 
L 19.828125 46.734375 
Q 21.96875 47.46875 24.109375 47.828125 
Q 26.265625 48.1875 28.421875 48.1875 
Q 40.625 48.1875 47.75 41.5 
Q 54.890625 34.8125 54.890625 23.390625 
Q 54.890625 11.625 47.5625 5.09375 
Q 40.234375 -1.421875 26.90625 -1.421875 
Q 22.3125 -1.421875 17.546875 -0.640625 
Q 12.796875 0.140625 7.71875 1.703125 
L 7.71875 11.625 
Q 12.109375 9.234375 16.796875 8.0625 
Q 21.484375 6.890625 26.703125 6.890625 
Q 35.15625 6.890625 40.078125 11.328125 
Q 45.015625 15.765625 45.015625 23.390625 
Q 45.015625 31 40.078125 35.4375 
Q 35.15625 39.890625 26.703125 39.890625 
Q 22.75 39.890625 18.8125 39.015625 
Q 14.890625 38.140625 10.796875 36.28125 
z
" id="DejaVuSans-35"/>
      </defs>
      <g transform="translate(146.7125 400.212289)scale(0.1 -0.1)">
       <use xlink:href="#DejaVuSans-35"/>
       <use x="63.623047" xlink:href="#DejaVuSans-30"/>
       <use x="127.246094" xlink:href="#DejaVuSans-30"/>
      </g>
     </g>
    </g>
    <g id="ytick_7">
     <g id="line2d_13">
      <g>
       <use style="stroke:#000000;stroke-width:0.8;" x="172.8" xlink:href="#mcfd1afa938" y="364.580964"/>
      </g>
     </g>
     <g id="text_14">
      <!-- 600 -->
      <g transform="translate(146.7125 368.380183)scale(0.1 -0.1)">
       <use xlink:href="#DejaVuSans-36"/>
       <use x="63.623047" xlink:href="#DejaVuSans-30"/>
       <use x="127.246094" xlink:href="#DejaVuSans-30"/>
      </g>
     </g>
    </g>
    <g id="ytick_8">
     <g id="line2d_14">
      <g>
       <use style="stroke:#000000;stroke-width:0.8;" x="172.8" xlink:href="#mcfd1afa938" y="332.748858"/>
      </g>
     </g>
     <g id="text_15">
      <!-- 700 -->
      <defs>
       <path d="M 8.203125 72.90625 
L 55.078125 72.90625 
L 55.078125 68.703125 
L 28.609375 0 
L 18.3125 0 
L 43.21875 64.59375 
L 8.203125 64.59375 
z
" id="DejaVuSans-37"/>
      </defs>
      <g transform="translate(146.7125 336.548077)scale(0.1 -0.1)">
       <use xlink:href="#DejaVuSans-37"/>
       <use x="63.623047" xlink:href="#DejaVuSans-30"/>
       <use x="127.246094" xlink:href="#DejaVuSans-30"/>
      </g>
     </g>
    </g>
    <g id="ytick_9">
     <g id="line2d_15">
      <g>
       <use style="stroke:#000000;stroke-width:0.8;" x="172.8" xlink:href="#mcfd1afa938" y="300.916752"/>
      </g>
     </g>
     <g id="text_16">
      <!-- 800 -->
      <g transform="translate(146.7125 304.715971)scale(0.1 -0.1)">
       <use xlink:href="#DejaVuSans-38"/>
       <use x="63.623047" xlink:href="#DejaVuSans-30"/>
       <use x="127.246094" xlink:href="#DejaVuSans-30"/>
      </g>
     </g>
    </g>
    <g id="ytick_10">
     <g id="line2d_16">
      <g>
       <use style="stroke:#000000;stroke-width:0.8;" x="172.8" xlink:href="#mcfd1afa938" y="269.084646"/>
      </g>
     </g>
     <g id="text_17">
      <!-- 900 -->
      <defs>
       <path d="M 10.984375 1.515625 
L 10.984375 10.5 
Q 14.703125 8.734375 18.5 7.8125 
Q 22.3125 6.890625 25.984375 6.890625 
Q 35.75 6.890625 40.890625 13.453125 
Q 46.046875 20.015625 46.78125 33.40625 
Q 43.953125 29.203125 39.59375 26.953125 
Q 35.25 24.703125 29.984375 24.703125 
Q 19.046875 24.703125 12.671875 31.3125 
Q 6.296875 37.9375 6.296875 49.421875 
Q 6.296875 60.640625 12.9375 67.421875 
Q 19.578125 74.21875 30.609375 74.21875 
Q 43.265625 74.21875 49.921875 64.515625 
Q 56.59375 54.828125 56.59375 36.375 
Q 56.59375 19.140625 48.40625 8.859375 
Q 40.234375 -1.421875 26.421875 -1.421875 
Q 22.703125 -1.421875 18.890625 -0.6875 
Q 15.09375 0.046875 10.984375 1.515625 
z
M 30.609375 32.421875 
Q 37.25 32.421875 41.125 36.953125 
Q 45.015625 41.5 45.015625 49.421875 
Q 45.015625 57.28125 41.125 61.84375 
Q 37.25 66.40625 30.609375 66.40625 
Q 23.96875 66.40625 20.09375 61.84375 
Q 16.21875 57.28125 16.21875 49.421875 
Q 16.21875 41.5 20.09375 36.953125 
Q 23.96875 32.421875 30.609375 32.421875 
z
" id="DejaVuSans-39"/>
      </defs>
      <g transform="translate(146.7125 272.883865)scale(0.1 -0.1)">
       <use xlink:href="#DejaVuSans-39"/>
       <use x="63.623047" xlink:href="#DejaVuSans-30"/>
       <use x="127.246094" xlink:href="#DejaVuSans-30"/>
      </g>
     </g>
    </g>
    <g id="ytick_11">
     <g id="line2d_17">
      <g>
       <use style="stroke:#000000;stroke-width:0.8;" x="172.8" xlink:href="#mcfd1afa938" y="237.25254"/>
      </g>
     </g>
     <g id="text_18">
      <!-- 1000 -->
      <g transform="translate(140.35 241.051759)scale(0.1 -0.1)">
       <use xlink:href="#DejaVuSans-31"/>
       <use x="63.623047" xlink:href="#DejaVuSans-30"/>
       <use x="127.246094" xlink:href="#DejaVuSans-30"/>
       <use x="190.869141" xlink:href="#DejaVuSans-30"/>
      </g>
     </g>
    </g>
    <g id="ytick_12">
     <g id="line2d_18">
      <g>
       <use style="stroke:#000000;stroke-width:0.8;" x="172.8" xlink:href="#mcfd1afa938" y="205.420434"/>
      </g>
     </g>
     <g id="text_19">
      <!-- 1100 -->
      <g transform="translate(140.35 209.219653)scale(0.1 -0.1)">
       <use xlink:href="#DejaVuSans-31"/>
       <use x="63.623047" xlink:href="#DejaVuSans-31"/>
       <use x="127.246094" xlink:href="#DejaVuSans-30"/>
       <use x="190.869141" xlink:href="#DejaVuSans-30"/>
      </g>
     </g>
    </g>
    <g id="ytick_13">
     <g id="line2d_19">
      <g>
       <use style="stroke:#000000;stroke-width:0.8;" x="172.8" xlink:href="#mcfd1afa938" y="173.588328"/>
      </g>
     </g>
     <g id="text_20">
      <!-- 1200 -->
      <g transform="translate(140.35 177.387547)scale(0.1 -0.1)">
       <use xlink:href="#DejaVuSans-31"/>
       <use x="63.623047" xlink:href="#DejaVuSans-32"/>
       <use x="127.246094" xlink:href="#DejaVuSans-30"/>
       <use x="190.869141" xlink:href="#DejaVuSans-30"/>
      </g>
     </g>
    </g>
    <g id="ytick_14">
     <g id="line2d_20">
      <g>
       <use style="stroke:#000000;stroke-width:0.8;" x="172.8" xlink:href="#mcfd1afa938" y="141.756223"/>
      </g>
     </g>
     <g id="text_21">
      <!-- 1300 -->
      <g transform="translate(140.35 145.555441)scale(0.1 -0.1)">
       <use xlink:href="#DejaVuSans-31"/>
       <use x="63.623047" xlink:href="#DejaVuSans-33"/>
       <use x="127.246094" xlink:href="#DejaVuSans-30"/>
       <use x="190.869141" xlink:href="#DejaVuSans-30"/>
      </g>
     </g>
    </g>
    <g id="ytick_15">
     <g id="line2d_21">
      <g>
       <use style="stroke:#000000;stroke-width:0.8;" x="172.8" xlink:href="#mcfd1afa938" y="109.924117"/>
      </g>
     </g>
     <g id="text_22">
      <!-- 1400 -->
      <g transform="translate(140.35 113.723335)scale(0.1 -0.1)">
       <use xlink:href="#DejaVuSans-31"/>
       <use x="63.623047" xlink:href="#DejaVuSans-34"/>
       <use x="127.246094" xlink:href="#DejaVuSans-30"/>
       <use x="190.869141" xlink:href="#DejaVuSans-30"/>
      </g>
     </g>
    </g>
    <g id="ytick_16">
     <g id="line2d_22">
      <g>
       <use style="stroke:#000000;stroke-width:0.8;" x="172.8" xlink:href="#mcfd1afa938" y="78.092011"/>
      </g>
     </g>
     <g id="text_23">
      <!-- 1500 -->
      <g transform="translate(140.35 81.891229)scale(0.1 -0.1)">
       <use xlink:href="#DejaVuSans-31"/>
       <use x="63.623047" xlink:href="#DejaVuSans-35"/>
       <use x="127.246094" xlink:href="#DejaVuSans-30"/>
       <use x="190.869141" xlink:href="#DejaVuSans-30"/>
      </g>
     </g>
    </g>
   </g>
   <g id="line2d_23">
    <path clip-path="url(#p323366705c)" d="M 172.8 555.255279 
L 172.8 554.300316 
L 188.548992 553.981995 
L 188.548992 553.345353 
L 188.763264 553.027032 
L 251.54496 552.390389 
L 267.293952 552.072068 
L 267.293952 551.753747 
L 377.644032 551.435426 
L 393.393024 551.117105 
L 424.891008 550.798784 
L 440.64 550.480463 
L 440.64 550.162142 
L 456.388992 549.843821 
L 487.886976 549.5255 
L 503.635968 549.207179 
L 535.133952 548.888858 
L 582.488064 548.570537 
L 588.594816 548.252216 
L 598.237056 547.933895 
L 661.233024 546.66061 
L 661.233024 545.069005 
L 676.982016 544.750684 
L 676.982016 543.4774 
L 692.731008 543.159079 
L 692.731008 542.522437 
L 700.4448 542.204115 
L 700.4448 541.885794 
L 708.48 541.567473 
L 708.48 539.657547 
L 724.228992 539.020905 
L 724.228992 538.384263 
L 724.764672 538.065942 
L 732.478464 537.747621 
L 732.478464 537.4293 
L 739.977984 537.110979 
L 739.977984 535.519373 
L 740.942208 535.201052 
L 748.441728 534.882731 
L 748.441728 534.56441 
L 755.726976 534.246089 
L 755.726976 531.381199 
L 771.475968 530.744557 
L 771.475968 529.152952 
L 787.22496 528.51631 
L 787.22496 524.696457 
L 796.438656 524.378136 
L 796.438656 522.786531 
L 802.973952 522.46821 
L 802.973952 517.056752 
L 812.40192 516.738431 
L 812.40192 515.783468 
L 818.722944 515.146825 
L 818.722944 507.188799 
L 828.365184 506.870478 
L 828.365184 506.552157 
L 834.471936 506.233836 
L 834.471936 500.504057 
L 844.435584 500.185736 
L 844.435584 498.275809 
L 848.613888 497.957488 
L 850.328064 497.639167 
L 850.328064 488.726177 
L 860.398848 488.089535 
L 860.398848 486.49793 
L 865.112832 486.179609 
L 865.112832 485.861288 
L 866.077056 485.542967 
L 866.077056 472.491803 
L 876.362112 471.855161 
L 876.362112 469.945235 
L 881.826048 469.626914 
L 881.826048 449.891008 
L 887.075712 449.572687 
L 887.075712 449.254366 
L 892.325376 448.936045 
L 892.325376 443.524587 
L 892.646784 443.206266 
L 892.646784 442.887945 
L 897.57504 442.569624 
L 897.57504 413.284086 
L 898.003584 412.965765 
L 908.395776 412.329123 
L 908.395776 402.779491 
L 913.324032 402.46117 
L 913.324032 370.947385 
L 924.35904 370.310743 
L 924.35904 366.17257 
L 929.073024 365.854248 
L 929.073024 327.655721 
L 931.001472 327.3374 
L 931.001472 327.019079 
L 940.322304 326.382437 
L 940.322304 315.2412 
L 944.822016 314.604558 
L 944.822016 279.907562 
L 952.000128 279.589241 
L 952.000128 279.27092 
L 956.285568 278.952599 
L 956.285568 271.312894 
L 960.571008 270.994573 
L 960.571008 227.702909 
L 972.355968 226.747945 
L 972.355968 221.336487 
L 976.32 221.018166 
L 976.32 186.639492 
L 988.319232 186.321171 
L 988.319232 182.819639 
L 992.068992 182.501318 
L 992.068992 148.122644 
L 1000.639872 147.804323 
L 1004.282496 147.486002 
L 1004.282496 144.939433 
L 1007.817984 144.621112 
L 1007.817984 129.02338 
L 1013.389056 128.705059 
L 1016.924544 128.386738 
L 1016.924544 128.068417 
L 1020.24576 127.750096 
L 1020.24576 125.84017 
L 1023.566976 125.521848 
L 1023.566976 115.017254 
L 1026.566784 114.698932 
L 1033.10208 114.380611 
L 1033.10208 114.06229 
L 1036.31616 113.743969 
L 1036.31616 113.425648 
L 1039.315968 113.107327 
L 1039.315968 105.785943 
L 1049.386752 105.467622 
L 1055.06496 104.83098 
L 1055.06496 98.782879 
L 1068.242688 98.464558 
L 1068.242688 98.146237 
L 1070.813952 97.827916 
L 1070.813952 94.008064 
L 1084.205952 93.689743 
L 1084.205952 93.371421 
L 1086.562944 93.0531 
L 1086.562944 89.551569 
L 1100.276352 89.233248 
L 1100.276352 88.278285 
L 1102.311936 87.959963 
L 1102.311936 85.095074 
L 1116.239616 84.776753 
L 1116.239616 84.458432 
L 1118.168064 84.140111 
L 1118.168064 82.230184 
L 1133.917056 81.911863 
L 1133.917056 80.9569 
L 1148.166144 80.638579 
L 1149.666048 80.320258 
L 1149.666048 79.365295 
L 1165.41504 79.046974 
L 1165.41504 78.728653 
L 1181.164032 78.410332 
L 1181.164032 78.092011 
L 1181.164032 78.092011 
" style="fill:none;stroke:#000000;stroke-linecap:square;"/>
   </g>
   <g id="line2d_24">
    <path clip-path="url(#p323366705c)" d="M 172.8 555.255279 
L 172.8 554.300316 
L 188.548992 553.981995 
L 188.763264 553.663674 
L 220.046976 553.027032 
L 220.046976 552.70871 
L 220.796928 552.390389 
L 235.795968 552.072068 
L 235.795968 551.753747 
L 251.54496 551.435426 
L 251.54496 551.117105 
L 267.293952 550.798784 
L 267.293952 550.480463 
L 298.791936 549.843821 
L 298.791936 549.5255 
L 314.648064 549.207179 
L 314.648064 548.888858 
L 330.397056 548.570537 
L 330.397056 547.615574 
L 346.146048 547.297252 
L 346.146048 545.705647 
L 361.89504 545.387326 
L 361.89504 543.159079 
L 364.680576 542.840758 
L 364.680576 542.204115 
L 367.573248 541.885794 
L 367.573248 541.567473 
L 377.644032 541.249152 
L 377.644032 538.065942 
L 380.64384 537.747621 
L 380.64384 537.4293 
L 393.393024 536.792657 
L 393.393024 534.882731 
L 396.71424 534.56441 
L 396.71424 534.246089 
L 409.142016 533.927768 
L 409.142016 529.471273 
L 412.677504 529.152952 
L 412.677504 528.51631 
L 424.891008 528.197989 
L 424.891008 525.65142 
L 428.640768 525.333099 
L 428.640768 524.059815 
L 432.497664 523.741494 
L 440.64 523.423173 
L 440.64 516.101789 
L 444.604032 515.783468 
L 444.604032 514.191862 
L 456.388992 513.873541 
L 456.388992 511.326973 
L 460.674432 511.008652 
L 460.674432 509.417046 
L 464.959872 509.098725 
L 464.959872 508.780404 
L 472.137984 508.462083 
L 472.137984 504.323909 
L 476.637696 504.005588 
L 476.637696 503.368946 
L 481.244544 503.050625 
L 481.244544 502.732304 
L 487.886976 502.413983 
L 487.886976 496.684204 
L 492.60096 496.365883 
L 492.60096 494.774278 
L 501.17184 494.455957 
L 503.635968 494.137635 
L 503.635968 490.317783 
L 507.6 489.999462 
L 508.564224 489.681141 
L 508.564224 488.407856 
L 518.420736 487.771214 
L 519.38496 487.452893 
L 519.38496 480.768151 
L 524.634624 480.44983 
L 524.634624 477.903261 
L 529.884288 477.58494 
L 529.884288 477.266619 
L 535.133952 476.948298 
L 535.133952 468.990272 
L 540.597888 468.671951 
L 540.597888 465.48874 
L 550.882944 465.170419 
L 550.882944 457.849035 
L 556.561152 457.530714 
L 556.561152 456.257429 
L 557.846784 455.939108 
L 560.953728 455.620787 
L 562.346496 455.302466 
L 566.631936 454.984145 
L 566.631936 445.434513 
L 572.524416 445.116192 
L 572.524416 443.206266 
L 580.98816 442.887945 
L 582.488064 442.569624 
L 582.488064 432.38335 
L 584.845056 432.065029 
L 584.845056 431.746708 
L 588.594816 431.428387 
L 588.594816 428.881818 
L 592.023168 428.563497 
L 592.023168 427.926855 
L 598.237056 427.290213 
L 598.237056 414.875692 
L 604.55808 414.557371 
L 604.55808 412.329123 
L 611.093376 412.010802 
L 611.093376 411.055839 
L 613.986048 410.737518 
L 613.986048 398.641318 
L 619.235712 398.322997 
L 620.521344 398.004675 
L 620.521344 396.094749 
L 626.092416 395.776428 
L 627.270912 395.458107 
L 627.270912 394.821465 
L 629.73504 394.503144 
L 629.73504 381.770301 
L 636.484608 381.45198 
L 636.484608 376.995486 
L 643.555584 376.677165 
L 643.555584 375.40388 
L 645.484032 375.085559 
L 645.484032 363.944322 
L 652.555008 363.626001 
L 652.555008 359.487827 
L 654.162048 359.169506 
L 659.73312 358.851185 
L 661.233024 358.532864 
L 661.233024 344.845059 
L 665.947008 344.526737 
L 668.518272 344.208416 
L 668.518272 340.706885 
L 676.017792 340.388564 
L 676.017792 340.070243 
L 676.982016 339.751922 
L 676.982016 328.929006 
L 684.481536 328.610685 
L 684.481536 324.15419 
L 692.195328 323.835869 
L 692.195328 322.880905 
L 692.731008 322.562584 
L 692.731008 306.646531 
L 700.4448 306.32821 
L 700.4448 303.463321 
L 708.48 303.145 
L 708.48 285.31902 
L 716.193792 285.000699 
L 716.5152 284.682378 
L 716.5152 281.817489 
L 724.228992 281.499168 
L 724.228992 260.171657 
L 724.764672 259.853336 
L 731.728512 259.535015 
L 732.478464 259.216694 
L 732.478464 254.760199 
L 739.977984 254.441878 
L 739.977984 236.615898 
L 740.942208 236.297577 
L 740.942208 235.342614 
L 743.084928 235.024293 
L 747.263232 234.705972 
L 748.441728 234.387651 
L 748.441728 231.841082 
L 755.726976 231.522761 
L 755.726976 215.288387 
L 757.22688 214.970066 
L 762.797952 214.651745 
L 762.797952 214.333424 
L 764.404992 214.015103 
L 764.404992 209.240287 
L 771.475968 208.921966 
L 771.475968 188.867739 
L 773.404416 188.549418 
L 773.404416 187.912776 
L 775.44 187.594455 
L 780.475392 186.957813 
L 780.475392 181.864676 
L 782.618112 181.546355 
L 787.22496 181.228034 
L 787.22496 166.266944 
L 793.867392 165.948623 
L 796.438656 165.630302 
L 796.438656 163.402055 
L 799.117056 163.083734 
L 802.973952 162.765412 
L 802.973952 149.714249 
L 805.866624 149.395928 
L 805.866624 149.077607 
L 812.40192 148.759286 
L 812.40192 144.621112 
L 818.722944 143.98447 
L 818.722944 130.933306 
L 822.151296 130.614985 
L 822.151296 129.978343 
L 828.365184 129.660022 
L 828.365184 127.431775 
L 834.471936 127.113454 
L 834.471936 119.473748 
L 844.435584 119.155427 
L 844.435584 117.563822 
L 848.613888 117.245501 
L 850.328064 116.92718 
L 850.328064 110.87908 
L 860.398848 110.242438 
L 860.398848 109.287474 
L 866.077056 108.969153 
L 866.077056 105.149301 
L 870.79104 104.83098 
L 870.79104 104.512659 
L 876.362112 104.194337 
L 876.362112 103.557695 
L 881.826048 103.239374 
L 881.826048 101.329448 
L 892.325376 100.692806 
L 892.325376 100.374485 
L 897.57504 100.056164 
L 897.57504 96.554632 
L 902.610432 96.236311 
L 903.253248 95.91799 
L 910.43136 95.599669 
L 913.324032 95.281348 
L 913.324032 94.008064 
L 929.073024 93.689743 
L 933.572736 93.371421 
L 940.322304 93.0531 
L 940.322304 92.416458 
L 944.822016 92.098137 
L 944.822016 89.551569 
L 952.000128 89.233248 
L 956.285568 88.914927 
L 956.285568 88.596606 
L 960.571008 88.278285 
L 960.571008 85.413395 
L 976.32 85.095074 
L 976.32 84.776753 
L 988.319232 84.458432 
L 988.319232 84.140111 
L 1007.817984 83.82179 
L 1036.31616 83.185148 
L 1036.31616 82.866826 
L 1039.315968 82.548505 
L 1052.279424 82.230184 
L 1055.06496 81.911863 
L 1055.06496 81.275221 
L 1070.813952 80.9569 
L 1070.813952 80.001937 
L 1086.562944 79.683616 
L 1086.562944 79.365295 
L 1116.239616 78.728653 
L 1116.239616 78.410332 
L 1118.168064 78.092011 
L 1118.168064 78.092011 
" style="fill:none;stroke:#ff0000;stroke-linecap:square;stroke-width:0.5;"/>
   </g>
   <g id="line2d_25">
    <path clip-path="url(#p323366705c)" d="M 172.8 555.255279 
L 172.8 554.300316 
L 204.297984 553.663674 
L 204.833664 553.345353 
L 220.046976 553.027032 
L 220.046976 552.390389 
L 235.795968 552.072068 
L 236.760192 551.753747 
L 251.54496 551.435426 
L 255.187584 551.117105 
L 267.293952 550.798784 
L 267.293952 549.843821 
L 314.648064 548.888858 
L 314.648064 548.252216 
L 330.397056 547.933895 
L 330.397056 547.297252 
L 332.754048 546.978931 
L 346.146048 546.66061 
L 346.146048 545.387326 
L 348.717312 545.069005 
L 361.89504 544.750684 
L 361.89504 543.159079 
L 364.680576 542.840758 
L 364.680576 541.885794 
L 370.573056 541.249152 
L 377.644032 540.930831 
L 377.644032 537.4293 
L 380.64384 537.110979 
L 393.393024 536.792657 
L 393.393024 534.56441 
L 396.71424 534.246089 
L 396.71424 532.654484 
L 409.142016 532.017842 
L 409.142016 528.51631 
L 412.677504 528.197989 
L 412.677504 527.879668 
L 416.320128 527.561347 
L 424.891008 527.243026 
L 424.891008 521.831568 
L 428.640768 521.513247 
L 428.640768 521.194926 
L 440.64 520.239962 
L 440.64 514.510183 
L 444.604032 514.191862 
L 444.604032 513.236899 
L 445.889664 512.918578 
L 448.782336 512.600257 
L 456.388992 512.281936 
L 456.388992 508.780404 
L 460.674432 508.462083 
L 460.674432 506.233836 
L 469.459584 505.597194 
L 471.388032 505.278873 
L 472.137984 504.960552 
L 472.137984 499.867415 
L 476.637696 499.549094 
L 476.637696 497.957488 
L 481.244544 497.639167 
L 487.886976 497.320846 
L 487.886976 492.864351 
L 492.60096 492.54603 
L 492.60096 491.272746 
L 497.42208 490.954425 
L 497.42208 490.317783 
L 503.635968 489.999462 
L 503.635968 482.996398 
L 508.564224 482.678077 
L 508.564224 480.131509 
L 519.38496 479.813188 
L 519.38496 471.218519 
L 524.313216 470.900198 
L 524.313216 470.581877 
L 524.634624 470.263556 
L 524.634624 467.716988 
L 535.133952 467.398666 
L 535.133952 456.894072 
L 540.597888 456.57575 
L 540.597888 454.665824 
L 546.16896 454.347503 
L 546.16896 454.029182 
L 550.882944 453.710861 
L 550.882944 439.386413 
L 556.561152 439.068092 
L 556.561152 438.113129 
L 566.631936 437.794808 
L 566.631936 425.061966 
L 568.346112 424.743645 
L 572.524416 424.425323 
L 572.524416 421.560434 
L 578.631168 421.242113 
L 578.631168 420.923792 
L 582.488064 420.605471 
L 582.488064 407.554307 
L 588.594816 407.235986 
L 588.594816 404.052776 
L 594.808704 403.734455 
L 594.808704 403.097812 
L 598.237056 402.779491 
L 598.237056 390.36497 
L 604.55808 390.046649 
L 604.55808 388.773365 
L 607.557888 388.455044 
L 607.557888 388.136723 
L 613.986048 387.500081 
L 613.986048 376.995486 
L 620.521344 376.677165 
L 620.521344 374.130596 
L 623.092608 373.812275 
L 627.270912 373.493954 
L 627.270912 372.538991 
L 629.73504 372.22067 
L 629.73504 359.487827 
L 631.984896 359.169506 
L 636.484608 358.851185 
L 636.484608 357.577901 
L 643.555584 357.25958 
L 643.555584 356.622938 
L 645.484032 356.304617 
L 645.484032 345.800022 
L 652.555008 345.481701 
L 652.555008 343.571774 
L 659.73312 343.253453 
L 659.73312 341.343527 
L 661.233024 341.025206 
L 661.233024 329.883969 
L 667.23264 329.565648 
L 668.518272 329.247327 
L 668.518272 327.655721 
L 669.696768 327.3374 
L 669.696768 327.019079 
L 676.982016 326.382437 
L 676.982016 313.967916 
L 683.731584 313.649595 
L 684.481536 313.331274 
L 684.481536 310.784705 
L 692.195328 310.466384 
L 692.731008 310.148063 
L 692.731008 300.598431 
L 700.230528 300.28011 
L 700.4448 299.961789 
L 700.4448 294.23201 
L 700.766208 293.913689 
L 708.48 293.595368 
L 708.48 275.769389 
L 716.5152 275.451068 
L 716.5152 271.312894 
L 716.729472 270.994573 
L 724.228992 270.676252 
L 724.228992 252.531951 
L 724.764672 252.21363 
L 724.764672 251.576988 
L 732.478464 251.258667 
L 732.478464 247.120493 
L 739.977984 246.802172 
L 739.977984 228.339551 
L 740.942208 228.02123 
L 740.942208 227.066266 
L 748.441728 226.747945 
L 748.441728 221.654808 
L 749.72736 221.336487 
L 749.72736 221.018166 
L 755.726976 220.699845 
L 755.726976 203.192187 
L 757.22688 202.873866 
L 757.22688 201.600582 
L 762.797952 201.282261 
L 764.404992 200.96394 
L 764.404992 198.417371 
L 766.119168 198.09905 
L 771.475968 197.780729 
L 771.475968 179.95475 
L 780.475392 179.636429 
L 780.475392 174.224971 
L 782.618112 173.90665 
L 787.22496 173.588328 
L 787.22496 160.855486 
L 789.689088 160.537165 
L 789.689088 159.263881 
L 793.867392 158.94556 
L 796.438656 158.627239 
L 796.438656 156.08067 
L 799.117056 155.762349 
L 802.973952 155.444028 
L 802.973952 141.756223 
L 809.402112 141.11958 
L 809.402112 140.482938 
L 812.40192 140.164617 
L 812.40192 136.026443 
L 818.722944 135.708122 
L 818.722944 126.158491 
L 822.151296 125.84017 
L 822.151296 124.885206 
L 828.365184 124.248564 
L 828.365184 122.338638 
L 834.471936 122.020317 
L 834.471936 112.470685 
L 838.328832 112.152364 
L 838.328832 111.834043 
L 844.435584 111.515722 
L 844.435584 110.87908 
L 850.328064 110.560759 
L 850.328064 105.467622 
L 854.613504 105.149301 
L 854.613504 104.83098 
L 860.398848 104.512659 
L 860.398848 103.239374 
L 866.077056 102.921053 
L 866.077056 100.374485 
L 881.826048 99.419522 
L 881.826048 98.146237 
L 892.325376 97.827916 
L 892.325376 96.872953 
L 897.57504 96.554632 
L 897.57504 95.281348 
L 913.324032 94.326385 
L 913.324032 93.689743 
L 918.145152 93.371421 
L 919.53792 93.0531 
L 935.715456 92.416458 
L 940.322304 92.098137 
L 940.322304 91.461495 
L 944.822016 91.143174 
L 944.822016 86.050037 
L 956.285568 85.731716 
L 960.571008 85.413395 
L 960.571008 83.185148 
L 1007.817984 81.911863 
L 1013.389056 81.593542 
L 1055.06496 81.275221 
L 1068.242688 80.9569 
L 1070.813952 80.638579 
L 1070.813952 80.320258 
L 1073.385216 80.001937 
L 1081.84896 79.683616 
L 1086.562944 79.046974 
L 1086.562944 78.728653 
L 1118.168064 78.410332 
L 1133.917056 78.092011 
L 1133.917056 78.092011 
" style="fill:none;stroke:#00ff00;stroke-linecap:square;stroke-opacity:0.6;stroke-width:1.2;"/>
   </g>
   <g id="line2d_26">
    <path clip-path="url(#p323366705c)" d="M 925.190915 555.255279 
L 925.190915 78.092011 
L 925.190915 78.092011 
" style="fill:none;stroke:#696969;stroke-linecap:square;"/>
   </g>
   <g id="line2d_27">
    <path clip-path="url(#p323366705c)" d="M 672.547371 555.255279 
L 672.547371 78.092011 
L 672.547371 78.092011 
" style="fill:none;stroke:#ff6347;stroke-linecap:square;"/>
   </g>
   <g id="line2d_28">
    <path clip-path="url(#p323366705c)" d="M 661.316876 555.255279 
L 661.316876 78.092011 
L 661.316876 78.092011 
" style="fill:none;stroke:#006400;stroke-linecap:square;"/>
   </g>
   <g id="patch_3">
    <path d="M 172.8 555.5736 
L 172.8 74.9088 
" style="fill:none;stroke:#000000;stroke-linecap:square;stroke-linejoin:miter;stroke-width:0.8;"/>
   </g>
   <g id="patch_4">
    <path d="M 1244.16 555.5736 
L 1244.16 74.9088 
" style="fill:none;stroke:#000000;stroke-linecap:square;stroke-linejoin:miter;stroke-width:0.8;"/>
   </g>
   <g id="patch_5">
    <path d="M 172.8 555.5736 
L 1244.16 555.5736 
" style="fill:none;stroke:#000000;stroke-linecap:square;stroke-linejoin:miter;stroke-width:0.8;"/>
   </g>
   <g id="patch_6">
    <path d="M 172.8 74.9088 
L 1244.16 74.9088 
" style="fill:none;stroke:#000000;stroke-linecap:square;stroke-linejoin:miter;stroke-width:0.8;"/>
   </g>
  </g>
 </g>
 <defs>
  <clipPath id="p323366705c">
   <rect height="480.6648" width="1071.36" x="172.8" y="74.9088"/>
  </clipPath>
 </defs>
</svg>
